<svg viewBox="0 0 831.08 296.07" xmlns="http://www.w3.org/2000/svg"><path d="m593.32 292.63a37.64 37.64 0 0 1 -17.77-4.55h-.85l-.68-.71a44.69 44.69 0 0 1 -6.37-4.41c-1-.86-1.84-1.65-2.7-2.47-.48-.48-.94-.91-1.39-1.3a42.72 42.72 0 0 0 -4.31-3.31l-.31-.19a38.05 38.05 0 0 0 -5-2.7h-.85l-.52-.53a36.32 36.32 0 0 0 -13.19-2.46 35.89 35.89 0 0 0 -14.64 3.07 35.32 35.32 0 0 0 -6.51 3.68 36.2 36.2 0 0 0 -3.67 3.05l-.31.25a2.51 2.51 0 0 0 -.37.36c-1.06 1-2.05 1.92-3.11 2.81l-1.44 1.1a39.55 39.55 0 0 1 -6.7 4.18l-.23.11-.75.25h-.1a36.72 36.72 0 0 1 -16.11 3.75h-194a40.1 40.1 0 0 1 -20.67-5.72l-.6.63-.15-.16-2-2.09-.12-.09a59.22 59.22 0 0 1 -4.88-4.38 35 35 0 0 1 -2.59-2.86 39.38 39.38 0 0 1 -5.75-9.32 40.93 40.93 0 0 1 -5.74 9.31 40.47 40.47 0 0 1 -7.79 7.23 40 40 0 0 1 -23.27 7.42h-174.2a40.37 40.37 0 0 1 -17.47-4l-.88-.39a39.43 39.43 0 0 1 -6-3.87 39 39 0 0 1 -7.56-7.56 39.18 39.18 0 0 1 -2.64-3.76c-.72-1.21-1.35-2.44-2-3.71a26.92 26.92 0 0 1 -1.4-3.48 29 29 0 0 1 -1.11-3.67 31 31 0 0 1 -.62-3.14c-.2-1.33-.34-2.56-.45-3.83-.06-1.08-.09-1.91-.09-2.75v-208.74c0-.31 0-.62 0-.93 0-.52 0-1 0-1.51a7.94 7.94 0 0 1 .09-1c.09-1.28.32-2.73.57-4.19l3.48.15-3.39-.59c0-.22.08-.43.13-.63a40.43 40.43 0 0 1 39.34-31.54h174.12a40.06 40.06 0 0 1 28.45 11.78 40.57 40.57 0 0 1 8.33 12.14 40 40 0 0 1 36.81-23.92h194.05c10.39 0 20.48 4.33 28.41 12.18a36.26 36.26 0 0 0 25.53 10.44 36.27 36.27 0 0 0 25.54-10.45c7.92-7.84 18-12.17 28.4-12.17h194.08a40.28 40.28 0 0 1 40.24 40.24v208.71c0 1 0 1.88-.11 2.8a31.77 31.77 0 0 1 -.5 4.16 27.74 27.74 0 0 1 -.72 3.3l-.06.23a31.67 31.67 0 0 1 -1.42 4.22 30.23 30.23 0 0 1 -1.69 3.74c-.53 1-1.12 2-1.73 3v.06l-.59.9a36.24 36.24 0 0 1 -2.84 3.71 38.57 38.57 0 0 1 -3.68 3.76 42 42 0 0 1 -4.6 3.58 40.84 40.84 0 0 1 -6.31 3.44 39.64 39.64 0 0 1 -16 3.31z" fill="#fff"/><path d="m787.4 6.88a36.82 36.82 0 0 1 36.8 36.8v208.71c0 .86 0 1.69-.11 2.52a28 28 0 0 1 -.44 3.78 26 26 0 0 1 -.73 3.27 28 28 0 0 1 -1.27 3.78 28.3 28.3 0 0 1 -1.55 3.45c-.65 1.27-1.38 2.47-2.13 3.64a36.64 36.64 0 0 1 -2.58 3.37 34.34 34.34 0 0 1 -3.38 3.44 38.26 38.26 0 0 1 -4.23 3.31 37.68 37.68 0 0 1 -5.75 3.13 36.37 36.37 0 0 1 -14.63 3h-194.09a34.16 34.16 0 0 1 -16.93-4.58 40.31 40.31 0 0 1 -6.3-4.3c-.86-.76-1.69-1.52-2.51-2.31-.48-.48-1-1-1.52-1.41a45.13 45.13 0 0 0 -5-3.82 40.89 40.89 0 0 0 -6.19-3.24.07.07 0 0 1 0 0s0 0 0 0a41.17 41.17 0 0 0 -9.6-2.58 41.68 41.68 0 0 0 -5.51-.37 39.48 39.48 0 0 0 -16 3.37 37.37 37.37 0 0 0 -7.12 4 40.25 40.25 0 0 0 -4 3.33 7.16 7.16 0 0 0 -.76.69c-.93.9-1.86 1.76-2.86 2.58l-1.34 1a37 37 0 0 1 -6.12 3.82h-.18-.17a33.57 33.57 0 0 1 -15.32 3.75h-194a36.87 36.87 0 0 1 -21.1-6.64s0 0 0 0a56.24 56.24 0 0 1 -4.61-4.13 31.62 31.62 0 0 1 -2.34-2.59 35.7 35.7 0 0 1 -5.92-10.12 36.45 36.45 0 0 1 -2.17-8.22 35.62 35.62 0 0 1 -.34-5.1 35.61 35.61 0 0 1 -.35 5.1 36.68 36.68 0 0 1 -15.18 24.92 36.62 36.62 0 0 1 -21.27 6.78h-174.92a36.69 36.69 0 0 1 -16.66-4h-.14a39.88 39.88 0 0 1 -9.22-6.78 35.43 35.43 0 0 1 -3.2-3.69 34.34 34.34 0 0 1 -2.38-3.47c-.65-1.11-1.24-2.24-1.79-3.41a25.43 25.43 0 0 1 -1.24-3.06 29.86 29.86 0 0 1 -1-3.41 29.23 29.23 0 0 1 -.65-3c-.18-1.17-.31-2.34-.42-3.54 0-.79-.07-1.62-.07-2.45v-208.52a4.53 4.53 0 0 1 0-.73c0-.51 0-1 0-1.48a6.45 6.45 0 0 1 .09-.79 39.22 39.22 0 0 1 .55-4.06c.07-.27.11-.58.17-.86a36.85 36.85 0 0 1 35.96-28.88h174.12a36.79 36.79 0 0 1 36 29.4 3.54 3.54 0 0 1 .14.62s0 .1 0 .14c0 .21.07.41.11.65a29.59 29.59 0 0 1 .34 3 2.42 2.42 0 0 1 0 .48v.24a1.71 1.71 0 0 1 0 .45 11.86 11.86 0 0 1 .07 1.58c0-.55 0-1.1.07-1.65a2 2 0 0 1 0-.42v-.27a3 3 0 0 1 0-.52 27.92 27.92 0 0 1 .45-3.37 6.75 6.75 0 0 1 .14-.76c0-.07 0-.1 0-.17a5.49 5.49 0 0 1 .18-.75 36.79 36.79 0 0 1 36.09-28.65h194.05a37.12 37.12 0 0 1 26 11.19 39.82 39.82 0 0 0 27.94 11.43 39.82 39.82 0 0 0 28-11.43 37.08 37.08 0 0 1 26-11.19zm0-6.88h-194.09c-11.31 0-22.24 4.68-30.83 13.18a32.82 32.82 0 0 1 -23.1 9.43 32.88 32.88 0 0 1 -23.13-9.45c-8.56-8.48-19.51-13.16-30.81-13.16h-194a43.43 43.43 0 0 0 -36.82 20.1 44.38 44.38 0 0 0 -5.86-7.29 43.55 43.55 0 0 0 -30.96-12.81h-174.12a43.93 43.93 0 0 0 -42.68 34.23l-.12.77-.06.23v.18c-.24 1.2-.5 2.8-.65 4.59 0 .35-.08.77-.1 1.24s0 .93 0 1.41 0 .82 0 1.08v208.66c0 .93 0 1.86.08 2.75v.29c.12 1.32.27 2.62.47 4s.5 2.62.79 3.69a35.19 35.19 0 0 0 1.2 4 31.28 31.28 0 0 0 1.54 3.78c.67 1.41 1.35 2.72 2.07 3.93a41.15 41.15 0 0 0 2.78 4.17 42.24 42.24 0 0 0 8.17 8.15 42.49 42.49 0 0 0 6.52 4.19l1.49.77h.23a43.71 43.71 0 0 0 18.24 4h174.15a43.41 43.41 0 0 0 25.25-8.11 42.76 42.76 0 0 0 11.54-12.09 44.4 44.4 0 0 0 3.14 4.29 38.34 38.34 0 0 0 2.77 3.06 60.59 60.59 0 0 0 5.17 4.63h.06l4.3 4.3.08.08 1.16-1.16a43.53 43.53 0 0 0 20.1 4.9h194.07a40 40 0 0 0 17.31-3.95 4.61 4.61 0 0 0 .53-.15l.44-.15.42-.21a43.63 43.63 0 0 0 7.28-4.53l.54-.42.82-.62.09-.08.09-.07c1-.83 2-1.74 3.25-2.93l.23-.23.2-.15.28-.26a34.07 34.07 0 0 1 3.36-2.79 31.6 31.6 0 0 1 5.79-3.26 32.42 32.42 0 0 1 13.31-2.81 34.63 34.63 0 0 1 4.59.32 33.3 33.3 0 0 1 6.68 1.65l1 1h1.51a36.94 36.94 0 0 1 4 2.19l.42.26a39.72 39.72 0 0 1 3.76 2.91c.4.34.79.71 1.16 1.08 1 1 1.9 1.78 2.83 2.61l.09.07.08.07a48 48 0 0 0 6.48 4.52l1.35 1.35h1.4a40.82 40.82 0 0 0 18.62 4.56h194.05a42.93 42.93 0 0 0 17.39-3.61 43.86 43.86 0 0 0 6.78-3.69 46.44 46.44 0 0 0 5-3.92 41.86 41.86 0 0 0 4-4.08 41 41 0 0 0 3.07-4l1.18-1.74v-.18c.51-.85 1-1.67 1.37-2.47a34.1 34.1 0 0 0 1.84-4.06 37.5 37.5 0 0 0 1.52-4.56l.15-.58.06-.24c.26-1 .46-2 .62-3a33.35 33.35 0 0 0 .53-4.48c.08-1 .12-2 .12-3v-208.7a43.72 43.72 0 0 0 -43.63-43.68z" fill="#727272"/><g fill="#efefef"><path d="m824.2 48.65c-36.88 38.17-80-1-116.24-21.08-17.89-9.9-36-17.71-56.75-15.41-21.08 2.33-41.3 11.9-60.2 21-35.54 17.09-72.68 42.76-112.73 47.23-31 3.46-53.28-14.47-75.49-33.47-23.89-20.45-46.65-37.44-79.79-33.2-35.65 4.56-68.29 24.74-100.59 39.08-32.8 14.56-62.67 22.89-98.06 13.4-39.72-10.67-75.54-28.35-117.47-29.61v-.87c42.12 1.37 78.25 18.9 118.26 29.36 35.37 9.24 65.32 1 98.11-13.44 32.26-14.24 64.86-34.3 100.44-38.82 33-4.19 55.65 12.73 79.41 33.23 22.09 19 44.24 36.94 75.18 33.49 40-4.47 77.2-30.14 112.73-47.23 18.9-9.1 39.12-18.68 60.2-21 20.79-2.31 38.93 5.55 56.85 15.43 36 19.88 79.59 59.35 116.14 21.06z"/><path d="m824.2 55.19c-39.34 37.14-79.28-.19-116.68-21.59-41.42-23.72-75.22-14-116.35 5.71-35.69 17.15-72.92 42.8-113.12 47.31-31.5 3.53-54.9-14.91-78.05-33.62-24.9-20-48.85-37.79-82.48-33.17-36.11 5-68.9 26.1-101.35 41.2-32.71 15.22-62.17 24.64-97.56 13.51-37.88-11.93-70.93-30.48-111.73-30.54v-1c40.94.26 74.36 18.72 112.49 30.51 35.39 11 64.89 1.68 97.63-13.45 32.45-15 65.24-36 101.29-40.91 33.56-4.57 57.34 13.07 82.1 33.18 23 18.71 46.29 37.07 77.71 33.55 40.17-4.5 77.37-30.16 113-47.29 41.23-19.84 74.9-29.39 116.45-5.75 37.26 21.23 77.62 58.79 116.65 21.5z"/><path d="m824.2 61.3c-42.09 36.4-79.34-.51-118-23.32-39.3-23.19-72.35-13.28-111.76 5.21-36.6 17.17-74.75 44-115.79 48.75-32.57 3.78-57.47-15.2-81.92-34s-49.28-37.85-81.73-34.04c-38.63 4.53-73.29 28.48-107.47 45.1-31 15.08-59.56 24.81-93.19 13.37-36.69-12.5-67.28-31.9-107.46-30.22v-1.21c40.33-1.4 71.3 18 108.21 30.39 33.67 11.32 62.2 1.76 93.3-13.23 34.21-16.49 68.89-40.29 107.45-44.77 32.41-3.76 57.13 15.16 81.38 34s49 37.71 81.51 33.94c41-4.76 79.08-31.57 115.63-48.72 39.47-18.55 72.42-28.36 111.82-5.27 38.55 22.6 76.24 59.73 118 23.16z"/><path d="m824.2 67.07c-44.15 35.24-78.51-.23-117.68-24.58-38.61-24-72.43-13.06-111.44 5.13-37.15 17.32-75.46 43.88-117 48.94-33.16 4-59.59-16.1-84.85-34.7s-51.56-38.78-84.56-34.64c-38.69 4.85-73.12 29.9-107 47.25-30.4 15.58-59 26.55-92.34 14.55-35.24-12.68-63.33-32.02-102.45-28.17v-1.36c39.31-3.49 67.74 15.88 103.19 28.51 33.4 11.95 62 1.17 92.48-14.34 33.93-17.2 68.45-42.08 107.09-46.89 32.92-4.09 59.13 16 84.13 34.54 25.23 18.69 51.23 38.41 84.4 34.59 41.38-4.78 79.83-31.67 116.83-48.9 39.08-18.23 72.77-29 111.49-5.15 39.11 24.11 73.9 59.79 117.74 24.38z"/><path d="m824.2 72.63c-46.09 34-77.81-.12-117.29-26.11-37.86-24.92-72.47-12.92-111.08 5-37.57 17.41-76.26 44.07-118.22 49.15-33.88 4.11-61.74-17-87.92-35.53-25.84-18.28-53.94-39.89-87.46-35.43-38.63 5.12-72.7 31.29-106.1 49.29-29.6 16-58.38 28.2-91.39 16-34.08-12.51-59.74-31.47-97.86-25.08v-1.49c38.31-6 64.33 13.08 98.58 25.68 33.06 12.17 61.81.16 91.55-15.78 33.48-17.94 67.62-43.9 106.26-49 33.44-4.4 61.26 17 87 35.3 26 18.53 53.65 39.48 87.42 35.39 41.89-5.08 80.52-31.72 118-49.12 38.68-17.95 73.16-29.77 111.15-5 39.45 25.71 71.58 60.1 117.36 25.84z"/><path d="m824.2 78.08c-23.79 16.24-44.64 20.78-70.41 6.29-17.24-9.69-31.54-23.76-47.79-34.91-37.49-25.76-74.58-10.81-112.47 7-37.52 17.66-77.47 45-119.86 48.33-32.9 2.64-61.67-19.24-87.37-36.79-27-18.45-57.09-41.37-91.64-36-37.17 5.8-69.46 31.16-101.25 49.5-30.71 17.71-60.87 31.76-95.66 17.92-31.93-12.69-55-29-90.87-20.25v-1.59c37.31-8.59 61 9.78 94.36 22.09 32.71 12.09 61.7-1.09 90.57-17.39 32.92-18.59 66.59-45.58 105.09-50.92 33.94-4.7 63.55 18 90 36.13 26.94 18.49 56.08 40.44 90.57 36.27 42.24-5.1 81.2-31.83 119-49.31 38.26-17.67 73.52-30.51 110.7-4.79 39.64 27.41 69.37 60.53 117 27.49z"/><path d="m824.2 83.53c-24.57 15.55-46.18 20.63-72.07 5.31-16.76-9.93-30.38-24.27-46-35.69-36.61-26.69-74.44-10.83-111.83 6.76-37.71 17.71-77.81 45.09-120.36 48.46-33.68 2.66-64-20.16-90.68-37.71-27.72-18.24-59.69-42.49-94.8-36.79-36.95 6-68.69 32.24-99.85 51.12-29.71 18-60.17 33.24-94.56 19.68-31.33-12.35-52.28-27.55-87.17-16.24v-1.66c35.07-10.85 56.39 4.56 87.81 17 34.46 13.62 64.86-1.41 94.75-19.37 31.28-18.79 63.12-44.87 100.12-50.84 35-5.65 66.63 18.36 94.21 36.65 26.48 17.55 56.54 40.2 90.08 37.56 42.53-3.36 82.63-30.75 120.28-48.45 37.48-17.63 75.19-33.33 112-6.81 15.74 11.34 29.47 25.64 46.32 35.49 25.86 15.17 47.32 10.18 71.75-5.49z"/><path d="m824.2 89.08c-25.37 14.91-47.92 20.52-74 4.35-16.35-10.15-29.34-24.77-44.52-36.43-35.7-27.5-74-10.95-110.85 6.45-37.53 17.72-77.51 45.17-120 48.51-34.48 2.71-66.5-21-94.11-38.43-28.48-18.08-62.37-43.53-98.08-37.53-36.64 6.09-67.85 33.1-98.36 52.44-28.79 18.26-59.54 34.56-93.56 21.28-31-12-49.9-26-83.84-12.21v-1.7c34.12-13.34 53.42.86 84.45 13 34.08 13.29 64.77-2.78 93.73-21 30.63-19.29 61.94-46.16 98.64-52.26 35.6-5.9 69.12 19.3 97.49 37.39 27.43 17.48 59.12 41 93.45 38.31 42.49-3.34 82.52-30.79 120.09-48.52 36.94-17.42 75.19-33.86 111.07-6.5 15.26 11.64 28.37 26.2 44.8 36.31 26 16 48.38 10.5 73.6-4.53z"/><path d="m824.2 94.85c-25.87 14.14-49.41 20.46-75.59 3.89-15.98-10.11-28.4-24.74-42.91-36.74-34.34-28.27-70.92-13.35-107.46 3.77-37.41 17.54-75.92 44.38-117.81 49.45-36.9 4.48-71.43-20.38-101.43-38.5-29-17.51-64.64-43.72-100.52-38.35-37.7 5.69-69.48 35.25-100.34 55.33-26.32 17.14-56.1 33.21-87.85 22-32.07-11.27-49-26.26-83.41-9.51v-1.7c34.53-16.29 51.9-1.08 84 10.22 31.8 11.21 61.53-4.73 88-21.83 31-20 62.89-49.46 100.64-55.15 35.73-5.39 71 20.71 99.82 38.27 29.79 18.16 63.95 42.87 100.7 38.43 42-5.08 80.65-31.93 118.19-49.48 36.63-17.09 73.23-31.95 107.77-3.8 14.55 11.85 27.07 26.51 43.1 36.59 26.11 16.41 49.4 10.19 75.1-4.06z"/><path d="m824.2 100.94c-26.82 13.63-51.68 20.45-78.34 3.12-15.81-10.27-27.86-25.19-42.07-37.35-33.45-28.61-69.69-13.71-105.51 3.39-36.28 17.35-74.15 44.53-115.06 49.22-37.79 4.33-73.8-20.73-105-38.7-30.08-17.32-67.62-44.1-104.31-38.62-37.46 5.65-68.67 35.66-98.91 56-25.78 17.32-55.82 33.91-87.35 22.79-12-4.23-22.47-12-34.69-15.59-17.11-5-31.12.83-46 9.2v-1.64c15.04-8.25 29.04-13.76 46.19-8.71 12.32 3.66 22.9 11.42 35 15.67 31.57 11.11 61.55-5.4 87.43-22.68 30.42-20.29 61.71-50.22 99.21-55.87 36.51-5.49 73.67 21.21 103.51 38.57 30.8 17.93 66.77 43.27 104.25 38.69 41.23-5 79-31.82 115.75-49.28 36-17.11 72.33-32 106-3.47 14.28 12.12 26.38 27 42.22 37.23 26.54 17.17 51.1 10.46 77.72-3.27z"/><path d="m824.2 107.47c-27.9 13.18-54.29 20.53-81.65 2.53-15.78-10.4-27.55-25.53-41.67-37.87-32.62-28.56-68-14.24-103 3-34.79 17.18-71.14 44.18-110.67 48.87-38.5 4.52-76.38-20.89-108.64-38.49-31.39-17.17-70.65-44-108.33-38.51-37.29 5.44-68 35.64-97.8 56.13-25.42 17.45-55.78 34.35-87.11 22.93-11.55-4.21-21.51-12.14-33.33-15.51-17-4.85-30.8 2.38-45.07 11.28v-1.54c14.41-8.81 28.21-15.74 45.27-10.89 11.94 3.4 22 11.29 33.64 15.49 31.38 11.33 61.66-5.53 87.14-23 29.93-20.46 60.7-50.64 98-56.13s76.32 21.39 107.41 38.56c32 17.69 69.5 43 107.85 38.57 39.87-4.65 76.59-31.7 111.76-48.89s70.78-31.71 103.57-3.1c14.11 12.31 25.95 27.39 41.72 37.76 27.19 17.86 53.23 10.64 80.88-2.63z"/><path d="m824.2 114.17c-28.66 12.93-55.52 19.68-83.39 1.61-16.08-10.42-28.26-25.57-42.68-38-32.5-27.9-66-14.75-100.41 3.21-32.85 17.16-67.16 44.18-104.92 49-39.12 4.95-79.33-21.47-112.46-38.75-32.59-17-74-44.47-112.6-38.73-37.27 5.54-67.67 35.87-97.28 56.64-24.88 17.45-55.76 35.64-86.81 23.85-11.28-4.28-20.77-12.67-32.37-16.1-16.93-5-30.23 2.15-44.4 11.14v-1.25c14.21-9 27.54-16.17 44.53-11.27 11.65 3.37 21.25 11.69 32.57 16 31.11 11.71 61.86-6.15 86.86-23.61 29.65-20.7 60.09-51 97.35-56.5 38.47-5.73 79.41 21.59 111.81 38.59 33 17.34 72.72 43.53 111.73 38.66 38.1-4.75 72.81-31.78 106.05-48.94 34.52-17.82 68.38-31.22 100.89-3.16 14.35 12.38 26.43 27.54 42.44 38 27.78 18.08 54.6 11.16 83.12-1.82z"/><path d="m824.2 120.48c-29.14 12.69-56.14 18.76-84.27.76-16.31-10.45-28.81-25.56-43.51-37.95-32.42-27.32-64.94-15.1-99 3.26-31.63 17.07-64.56 43.92-101.23 48.68-39.46 5.12-81.14-22-114.78-39.12-33.24-16.87-76-45-115.15-39.06-37.33 5.64-67.58 36.08-97.05 57.14-24.43 17.45-55.91 37-86.76 24.82-11.14-4.41-20.23-13.14-31.61-16.9-16.72-5.53-29.9 1.61-44 10.5v-1c14.16-8.86 27.35-16.01 44.16-10.61 11.43 3.68 20.61 12.33 31.78 16.7 30.89 12.1 62.23-7.16 86.75-24.61 29.49-21 59.77-51.42 97.09-57 39.06-5.88 81.56 22.1 114.69 39 33.54 17.1 75 44.14 114.36 39 36.87-4.78 70.06-31.69 101.92-48.79 34.04-18.3 66.71-30.73 99.16-3.3 14.64 12.39 27.08 27.52 43.35 38 28.08 18 55.06 11.79 84.1-1z"/><path d="m824.2 126.5c-29.47 12.42-56.51 17.89-84.77 0-16.43-10.5-29.18-25.5-44.06-37.89-32.28-26.85-64.53-15.32-98.37 3.07-31 16.89-63.15 43.32-99.28 47.94-39.64 5-82-22.51-115.91-39.44-33.51-16.74-77.05-45.3-116.35-39.32-37.41 5.7-67.54 36.2-96.9 57.51-24.07 17.47-56.17 38.32-86.86 25.63-11.08-4.59-19.81-13.69-31-17.82-16.54-6.09-29.66.93-43.78 9.73v-.71c14.11-8.82 27.24-15.88 43.82-9.93 11.26 4 20.08 13 31.17 17.59 30.73 12.57 62.67-8 86.83-25.45 29.34-21.25 59.5-51.74 96.89-57.41 39.29-6 82.69 22.49 116.16 39.26 33.85 17 76.1 44.44 115.71 39.37 36.22-4.63 68.5-31.23 99.66-48.18 33.84-18.45 66.1-30.08 98.42-3.13 14.84 12.37 27.52 27.44 43.95 37.89 28.23 17.94 55.27 12.33 84.67-.16z"/><path d="m824.2 132.3c-29.7 12.16-56.75 17.08-85.07-.77-16.55-10.43-29.44-25.4-44.43-37.73-32.15-26.45-64.57-15.47-98.29 2.71-30.92 16.67-62.61 42.57-98.55 46.88-39.74 4.77-82.28-22.85-116.37-39.68-33.56-16.57-77.49-45.45-116.75-39.47-37.44 5.69-67.41 36.19-96.61 57.69-23.76 17.5-56.44 39.5-87 26.3-11.07-4.78-19.47-14.27-30.58-18.8-16.39-6.68-29.47.19-43.67 8.89v-.55c14.17-8.73 27.26-15.64 43.69-9.11 11.14 4.43 19.62 13.82 30.68 18.55 30.6 13.07 63.13-8.65 87-26.14 29.25-21.46 59.27-52 96.7-57.66 39.28-6 83.15 22.82 116.7 39.44 34.05 16.85 76.57 44.48 116.29 39.63 36-4.39 67.74-30.44 98.67-47.17 33.73-18.25 66.08-29.36 98.26-2.82 15 12.34 27.82 27.34 44.35 37.77 28.3 17.87 55.35 12.81 85 .58z"/><path d="m824.2 138c-29.92 11.88-57 16.28-85.34-1.49-16.62-10.41-29.67-25.3-44.78-37.6-32-26.07-64.81-15.6-98.54 2.26-31 16.4-62.39 41.65-98.29 45.65-39.85 4.44-82.38-23.08-116.67-39.83-33.58-16.4-77.76-45.48-116.9-39.55-37.36 5.66-67.05 36.06-96 57.71-23.43 17.53-56.59 40.54-87 26.85-11.08-5-19.15-14.86-30.17-19.8-16.24-7.28-29.3-.59-43.62 8v-.48c14.28-8.64 27.35-15.38 43.63-8.26 11 4.83 19.2 14.6 30.28 19.54 30.43 13.57 63.48-9.2 87-26.71 29-21.62 58.82-52.06 96.22-57.73 39.16-5.95 83.31 23.09 116.85 39.52 34.23 16.77 76.76 44.34 116.58 39.81 35.9-4.09 67.39-29.52 98.34-46 33.73-17.89 66.41-28.5 98.46-2.33 15.08 12.31 28.09 27.22 44.69 37.64 28.35 17.78 55.4 13.25 85.26 1.29z"/><path d="m824.2 143.63c-30.19 11.6-57.28 15.46-85.74-2.23-16.74-10.4-30-25.22-45.24-37.49-31.94-25.68-65.05-15.77-98.81 1.78-31 16.12-62.1 40.69-97.93 44.39-40.05 4.14-82.69-23.21-117.31-39.85-33.65-16.17-78.25-45.36-117.36-39.48-37.13 5.59-66.35 35.79-94.91 57.53-23.05 17.54-56.56 41.44-86.71 27.32-11.09-5.2-18.83-15.44-29.74-20.77-16.09-7.83-29.12-1.34-43.56 7.17v-.5c14.41-8.5 27.45-15.1 43.58-7.39 10.94 5.23 18.77 15.37 29.86 20.51 30.23 14 63.66-9.66 86.82-27.2 28.69-21.72 58.07-52 95.28-57.59 39.1-5.9 83.57 23.27 117.17 39.5 34.51 16.67 77.09 44.07 117.07 39.86 35.86-3.78 67.07-28.54 98.07-44.73 33.76-17.63 66.8-27.7 98.75-1.91 15.21 12.28 28.4 27.11 45.1 37.52 28.43 17.71 55.5 13.7 85.61 2z"/><path d="m824.2 149.35c-31 11.42-58.35 14.54-87.21-3.51-17-10.62-30.56-25.6-46.29-37.82-32.29-25.09-66.78-14.15-100.14 3.47-30.77 16.27-62 40.15-98 42.32-39.15 2.36-81.19-24.08-115.22-40-34.5-16.2-79.93-45.63-119.79-39-35.4 5.9-62.84 33.83-89.9 55.13-23.78 18.71-59.15 45.17-90.29 28.08-9.85-5.4-16.82-14.94-26.7-20.13-16.17-8.51-28.9-2.43-43.78 6.25v-.63c14.86-8.7 27.6-14.81 43.83-6.46 9.92 5.11 17 14.56 26.84 19.92 31.27 17 66.61-9.27 90.57-28 27.25-21.3 54.91-49.32 90.46-55.27 39.78-6.65 85 22.78 119.31 39 33.83 16 75.69 42.51 114.69 40.11 36.1-2.22 67.53-26.29 98.4-42.61 33.36-17.64 67.88-28.83 100.18-3.6 15.66 12.22 29.14 27.22 46.06 37.84 28.8 18.06 56.14 14.78 87 3.27z"/><path d="m824.2 155.23c-31.5 11.09-59.19 13.58-88.42-4.41-17.3-10.64-31.29-25.6-47.38-37.82-32.27-24.51-66.31-14.67-99.53 3.1-30.11 16.11-60.22 39.35-95.58 41.45-39.94 2.37-83.06-23.92-118.08-39.73-35.34-15.95-82-45.37-122.51-38.69-34.71 5.72-61.16 33.29-87.33 54.5-23 18.66-58.33 45.8-88.89 28.42-9.78-5.56-16.39-15.36-26.1-20.85-16-9-28.59-3-43.49 5.64v-.84c14.9-8.66 27.58-14.68 43.59-5.8 9.77 5.41 16.49 15.13 26.29 20.65 30.75 17.32 66.11-9.64 89.37-28.32 26.46-21.25 53.24-48.93 88.18-54.71 40.24-6.66 86.5 22.77 121.54 38.79 34.68 15.86 77.41 42.18 117.07 39.84 35.6-2.1 66.1-25.52 96.47-41.66 33.27-17.7 67.5-27.89 99.78-3.2 16 12.22 29.82 27.18 47 37.82 29.11 18 56.69 15.32 88 4.13z"/><path d="m824.2 161.35c-32.28 10.73-60.46 12.52-90.29-5.43-17.78-10.7-32.36-25.68-49-37.93-32.31-23.79-65.15-15.36-98.06 2.92-28.84 16-56.94 38.77-91.16 41-41.21 2.68-86.33-23.63-122.88-39.23-36.81-15.68-85.51-45.04-127.16-38.27-33.65 5.47-58.81 32.59-83.72 53.59-22 18.56-56.94 46.26-86.74 28.77-9.66-5.67-15.83-15.66-25.32-21.4-15.65-9.47-28.18-3.39-43 5.22v-1.26c14.84-8.62 27.41-14.66 43.16-5.33 9.56 5.68 15.87 15.61 25.58 21.26 30.05 17.48 65.14-10.06 87.47-28.66 25.35-21.07 50.92-48.33 84.92-53.89 41.23-6.73 89.25 22.64 125.54 38.42 36 15.66 80.44 41.94 121.21 39.39 34.59-2.16 63.48-25 92.73-41.08 33-18.13 66.35-26.94 98.61-3 16.45 12.24 30.82 27.21 48.44 37.89 29.62 18 57.63 15.94 89.65 5.11z"/><path d="m824.2 167.82c-33.34 10.31-62.29 11.33-93-6.63-18.46-10.8-33.85-25.85-51.2-38.19-32.21-22.8-63.33-16.54-95.44 3-26.53 16.12-51.76 38.53-84.07 41.11-43.09 3.44-91.46-23.2-130.16-38.51-39.09-15.47-90.76-44.69-134.36-37.72-32.48 5.2-55.44 31.86-78.9 52.47-20.87 18.33-54.65 46.52-83.65 29.14-9.5-5.69-15.12-15.82-24.31-21.74-15.26-9.83-27.65-3.54-42.19 5v-1.75c14.61-8.57 27.08-14.77 42.44-5 9.29 5.87 15.08 16 24.65 21.66 29.33 17.43 63.39-10.63 84.71-29 24-20.72 47.59-47.56 80.53-52.86 42.9-6.89 93.55 22.37 131.84 37.91 38 15.41 85.18 41.9 127.62 38.75 33-2.44 59.22-24.94 86.58-41 32.42-19.05 64.13-26.06 96.39-2.93 17.12 12.29 32.23 27.31 50.46 38.07 30.4 18 59.08 16.69 92.06 6.24z"/><path d="m824.2 174.44c-34.15 10.18-63.56 10.36-95-7.49-19.35-11-35.76-26.2-54.05-38.73-32.25-22.1-61.36-18.6-92.87 2.53-23.94 16.05-46.28 38.25-76.37 41.35-19.05 2-39.64-4.68-57.6-10.15-26.74-8.15-52.9-18.18-79.08-27.94-28.44-10.6-56.86-21.66-86.06-30-17.57-5-36.53-10.65-55-7.51-31.61 5.38-53.48 32-75.83 52.58-20.16 18.53-52.52 46.54-81.34 29.62-9.32-5.48-14.49-15.61-23.36-21.49-14.76-9.79-26.77-3.32-40.78 5.18v-2.11c14.21-8.54 26.39-15 41.32-5.11 8.95 5.93 14.18 16.15 23.59 21.68 28.8 16.91 61.35-11 81.67-29.5 22.46-20.49 44.4-47 76.08-52.25 18.33-3 37.05 2.46 54.51 7.5 28.9 8.34 57 19.4 85.13 30 40 15.09 91.15 42.42 135.39 38.15 30.69-3 53.72-25.25 78.32-41.41 31.52-20.71 61.21-25 93.38-2.84 18 12.44 34.11 27.61 53.18 38.53 31.31 17.94 60.7 17.52 94.74 7.39z"/><path d="m824.2 180.09c-34.21 10.53-63.54 10.32-95.32-7-20.09-10.95-37.39-26.12-56.4-38.72-32.35-21.44-60.41-20.15-91.82 1.66-22.45 15.6-43.15 37.08-71.63 40.56-19.14 2.34-40.39-4.54-58.5-9.85-27.38-8-54.21-17.95-81-27.6-29.17-10.5-58.32-21.44-88.2-29.77-17.82-5-37.26-10.77-55.9-7.44-31.5 5.63-53.41 32.22-75.8 52.7-20.13 18.37-52.26 46.37-80.89 29.57-9.07-5.33-14.07-15.19-22.69-20.91-14.26-9.46-25.77-3-39.16 5.4v-2c13.59-8.4 25.26-14.89 39.68-5.33 8.7 5.77 13.75 15.72 22.9 21.1 28.7 16.87 60.84-11.19 80.94-29.67 22.32-20.53 44.18-47.21 75.69-52.8 18.58-3.3 37.91 2.49 55.66 7.48 29.7 8.35 58.65 19.35 87.62 29.89 26.62 9.7 53.31 19.64 80.52 27.75 18.07 5.37 39.16 12.22 58.28 10 28.94-3.39 50.11-25.15 73-40.92 31.44-21.68 59.73-23.62 92.07-1.92 18.75 12.59 35.75 27.8 55.66 38.8 31.68 17.53 61.05 17.66 95.29 7.28z"/><path d="m824.2 184.83c-33.89 11.18-63 11-95-5.43-20.66-10.63-38.69-25.49-58.27-37.87-32.34-20.46-60.1-20.71-91.49.95-21.66 14.94-41.32 35.34-68.67 38.94-19.17 2.58-40.57-4.19-58.77-9.32-27.73-7.8-54.94-17.48-82.15-26.92-29.58-10.26-59.14-21-89.39-29.13-18-4.85-37.52-10.52-56.28-7.25-31.56 5.51-53.84 31.51-76.65 51.69-20.23 17.91-52.61 45.4-80.92 28.8-8.85-5.19-13.7-14.78-22.1-20.34-13.79-9.13-24.82-2.61-37.62 5.62v-1.94c13-8.27 24.19-14.78 38.13-5.55 8.47 5.62 13.37 15.3 22.29 20.53 28.43 16.69 60.68-11 80.84-29.11 22.63-20.31 44.76-46.55 76.28-52.14 18.73-3.31 38.27 2.44 56.21 7.33 30.15 8.22 59.6 19 89.08 29.38 27.11 9.52 54.22 19.28 81.86 27.18 18.18 5.19 39.58 12 58.73 9.52 27.68-3.58 47.63-24.39 69.49-39.57 31.39-21.79 59.18-22 91.53-1.17 19.4 12.48 37.2 27.46 57.69 38.23 31.94 16.78 61.15 17 95.18 6.06z"/><path d="m824.2 188.93c-62.64 22.67-102.38-8.65-154-39.47-32.28-19.27-60.24-20.48-91.71.34-21.37 14.13-40.47 33.14-67 36.7-19.13 2.57-40.3-3.72-58.56-8.63-27.89-7.49-55.27-16.87-82.64-26-29.77-10-59.5-20.35-89.9-28.25-18.08-4.7-37.44-10-56.26-7-31.73 5.15-54.59 30.17-78.09 49.86-20.55 17.22-53.48 43.86-81.39 27.57-8.65-5.05-13.42-14.35-21.65-19.74-13.35-8.79-23.92-2.26-36.15 5.84v-1.9c12.43-8.14 23.16-14.67 36.65-5.77 8.26 5.45 13 14.87 21.75 20 28.05 16.41 60.77-10.55 81.2-28 23.23-19.88 45.88-45.27 77.54-50.56 18.81-3.14 38.25 2.31 56.3 7.07 30.37 8 60.06 18.51 89.78 28.57 27.34 9.25 54.68 18.74 82.53 26.35 18.24 5 39.52 11.45 58.66 8.88 26.79-3.59 46-23.1 67.46-37.54 31.47-21.25 59.28-20.25 91.63-.61 19.88 12.12 38.32 26.66 59.29 37 32.1 15.78 61 15.7 94.56 4z"/><path d="m824.2 192.64c-61.11 24.58-102.32-5.72-154.27-34.68-32.18-18-60.65-19.69-92.27-.21-21.4 13.18-40.28 30.61-66.2 34-19.1 2.51-39.78-3.16-58.11-7.85-27.92-7.15-55.35-16.18-82.77-25-29.81-9.58-59.6-19.64-90-27.23-18.13-4.52-37.19-9.37-56-6.64-32 4.63-55.5 28.49-79.81 47.54-21 16.42-54.59 42-82.07 26.06-8.44-4.89-13.09-14-21.09-19.18-12.92-8.44-23-1.89-34.73 6.07v-1.9c11.88-8 22.16-14.55 35.23-6 8.07 5.28 12.75 14.44 21.25 19.38 27.64 16.07 61-9.9 81.82-26.61 24-19.29 47.32-43.58 79.19-48.4 18.81-2.85 38 2.17 56.11 6.76 30.4 7.7 60.18 17.89 90 27.6 27.41 8.93 54.83 18.08 82.74 25.36 18.31 4.77 39.18 10.66 58.29 8.13 26.12-3.47 45-21.48 66.42-35 31.56-20 59.82-18.41 92 0 51.85 29.65 92.55 60.34 154.23 36.46z"/><path d="m824.2 196.19c-58.58 26.39-101.09-1.52-152.78-28.59-31.88-16.69-60.75-20-92.92-2.4-21.2 11.6-39.79 27.8-64.5 31.54-46.24 7-100-17.31-143.27-30.63-43.74-13.48-97.71-38.36-144.6-32.76-33.37 4-58.39 27.82-84.42 46.72-20.22 14.68-53 37.42-79 24.27-9.35-4.73-14.18-14.46-22.72-20-12.35-8-22.24-1.14-33.1 6.5v-1.93c11.34-7.88 21.18-14.44 33.85-6.22 7.89 5.12 12.48 14 20.79 18.81 27.22 15.69 61.31-9.16 82.52-25.05 24.84-18.61 48.82-41.69 80.91-46 47.32-6.31 101.69 19.2 145.76 33 42.2 13.22 95.18 37.47 140.56 31.68 25.57-3.27 44.43-19.66 65.91-32.16 31.74-18.46 60.63-16.54 92.74.55 52.12 27.72 94.23 57.25 154.27 31.33z"/><path d="m824.2 199.86c-56.9 28.52-100.81 1.86-152.79-23.27-31.82-15.39-61.39-18.72-93.67-2.83-21.25 10.46-39.86 25-64 28.44-46.56 6.64-99.31-16-143.07-29-44.27-13.12-97.26-36.52-144.47-31.55-33.51 3.53-59.07 26.16-85.82 44.36-20.55 14-53.82 35.68-79.51 22.82-23.93-12-25.11-33.57-54-12.58v-2c29.35-21.06 30.48.76 54.68 12.92 25.8 13 58.92-9.12 79.36-23.34 26.51-18.45 51.89-41.5 85.36-45.19 47.09-5.19 100.38 18.72 144.46 32 43.55 13.09 96.66 36.36 143.09 29.58 24.34-3.55 42.95-18.7 64.19-29.59 32.25-16.52 61.56-13.21 93.41 2.66 51.86 25.84 95.24 53 152.76 25.23z"/><path d="m824.2 203.88c-55.37 30.59-100.82 5-153.14-18.35-31.74-14.18-61.89-17.6-94.23-3.33-21.07 9.3-39.58 22.32-63 25.45-47 6.31-99.18-15.1-143.57-27.77-44.83-12.79-97.47-35.2-145-30.63-33.48 3.21-59.37 24.91-86.54 42.5-20.72 13.43-54.22 34.25-79.65 21.69-20.57-10.18-27.62-35.19-52.18-11.66v-2.15c25-23.66 32.07 1.68 52.88 12 25.52 12.69 59-8.46 79.64-22.07 27.05-17.81 52.85-39.82 86.36-43.13 47.43-4.69 100.11 18 144.72 30.93 44.13 12.77 96.45 34.61 143.27 28.2 23.7-3.25 42.26-16.84 63.44-26.57 32.34-14.86 62.27-11.51 94 3.12 52.18 24 97 50 153 20.15z"/><path d="m824.2 208.51c-54.12 32.46-101.4 7.64-154.12-14.27-31.68-13.17-62-16.82-94.43-4-20.54 8.14-38.57 19.86-61 22.75-47.65 6.14-100-14.6-145.22-27.06-45.43-12.53-98.67-34.72-146.74-30.2-33.22 3.13-59.1 24.32-86.26 41.52-20.78 13.16-54 33.35-79.21 21-20-9.74-26.92-33.86-50.33-10.68v-2.32c23.86-23.25 30.86 1.19 51.11 11.1 25.31 12.42 58.66-8 79.45-21.22 27.23-17.32 53.16-38.65 86.51-41.78 47.86-4.48 100.73 17.68 145.93 30.31 44.84 12.54 97 33.44 144.41 27.27 22.85-3 41.07-15.21 61.9-23.76 32.43-13.31 62.65-9.85 94.41 3.7 52.55 22.44 99.08 47.5 153.64 15.74z"/><path d="m824.2 214c-86.3 55.19-162.85-49.91-251.48-15.81-19.29 7.42-36.21 17.45-57.13 20.08-48.13 6-101.79-14.83-147.5-27.14-47-12.67-103.64-36.5-153.25-30.09-30.35 3.96-54.84 23.96-79.59 40.13-21.1 13.78-54.71 35-80.58 22-19-9.61-25.81-31.84-47.78-9.32v-2.55c22.71-23 29.59.58 49.19 10.07 25.2 12.18 57.94-7.8 78.62-20.95 26.89-17.1 52.57-38.27 85.48-41.49 48.45-4.74 102.65 17.81 148.52 30.26s98.79 33.14 146.94 27c21.62-2.77 39.18-13.78 59.14-21.34 32.31-12.25 62.76-8.19 94.3 4.45 53 21.23 101.54 45.86 155.12 12.42z"/><path d="m824.2 220.54c-86.58 54.57-163.79-49-251.61-16.41-17.87 6.63-33.62 16.56-52.9 19.17-49.43 6.67-106.11-15.73-153.14-28.14-32.16-8.48-64.26-17.43-96.76-24.56-18.64-4.09-38.89-9.31-58.11-6.81-31.77 4.14-56.67 26.2-82.2 43.51-20.1 13.63-50.93 33.87-76.14 21.95-18.92-8.95-24.85-30.51-46.45-8.71v-2.8c21.27-22.33 27.92-.66 46.62 8.68 25.88 13 58.61-8.36 79.43-22.4 24.17-16.32 48.12-36.66 78-40.91 20.55-2.92 41.61 2.11 61.57 6.46 31.76 6.91 63.1 15.73 94.5 24.09 46.27 12.33 101.64 34 150.33 27.57 19.87-2.62 35.94-12.11 54.31-19.09 88.47-33.59 166.42 72.07 252.55 15.6z"/><path d="m824.2 227.41c-55.05 29.89-107.3 5.94-161.69-12.75-30.76-10.57-60.16-15.79-91.12-3.77-17.23 6.69-32.67 16.42-51.47 18.55-20.31 2.29-42.7-3.33-62.46-7.42-30.65-6.34-61-14.22-91.3-22-33-8.46-66-17.32-99.29-24.52-19-4.09-40.21-10.25-59.72-6.79-30 5.33-54.52 26.29-79 42.91-20.88 14.17-52 36.48-78.17 22.9-17.86-9.27-21.57-25.48-43.08-7.12v-2.88c21.27-19.51 25.85-2 43.76 7.39 26.25 13.74 57.71-8.38 78.71-22.75 24.5-16.77 48.75-37.81 79-42.78 19.46-3.19 40.28 2.58 59.18 6.67 33.15 7.19 65.91 16.16 98.72 24.7 30.14 7.84 60.31 15.8 90.81 22.13 19.7 4.08 41.58 9.32 61.82 7 19.18-2.15 34.79-12 52.38-18.74 87.4-33.8 165.12 67.05 252.92 16.34z"/><path d="m824.2 234.27c-56.09 26.12-108.37 3.34-163.42-13.91-29.77-9.33-57.71-14.16-87.52-3-17.06 6.36-32.67 16.06-51.1 18.3-20.59 2.49-43.29-3.63-63.32-7.62-31.09-6.2-61.9-13.82-92.7-21.32-33.64-8.22-67.23-16.78-101.14-23.91-19.45-4.09-40.53-10.21-60.38-6.42-28.38 5.42-53.22 25.19-76.89 40.51-21.12 13.66-52.44 36.77-78.79 24-18.17-8.78-19.79-22.59-42.07-6.67v-2.94c22.13-17.1 24.47-1.93 42.73 7 26.56 13 57.91-10.28 79-24.37 23.46-15.66 47.93-35.78 76.41-41.13 19.79-3.72 40.74 2.3 60.1 6.43 33.86 7.23 67.39 16 101 24.37 30.76 7.67 61.51 15.46 92.58 21.74 20 4 42.42 10 63 7.48 18.59-2.27 34.08-12.08 51.22-18.57 29.79-11.24 58.03-6.24 87.7 3.36 55.15 17.91 107.54 41.6 163.59 13.73z"/><path d="m824.2 241.14c-53.89 21.35-104.17 3-157.08-12.45-32.33-9.46-61.59-14.91-93.78-3.39-16.54 5.92-32.28 14.68-50 17-20.49 2.7-43.24-3.47-63.34-7.3-31.34-6-62.44-13.1-93.53-20.16s-62.26-14.4-93.55-20.82c-21.79-4.47-46.83-12.58-68.94-7.38-28.94 6.81-54.38 24.11-79.77 38.8-20.64 11.95-53.57 34.37-78.32 20.82-4.93-2.7-8-8.78-13-10.93-8.44-3.61-18.77 1.49-26 5.79v-3c7.09-4.58 17.49-10 25.94-6.14 5.32 2.44 8.42 8.75 13.68 11.62 25.24 13.79 57.57-8.79 78.32-21.45 25-15.22 49.91-33.28 78.79-40.13 22.1-5.23 47.13 3 68.87 7.54 31.39 6.62 62.57 14.2 93.8 21.54s62.34 14.74 93.78 20.86c20.05 3.9 42.74 10 63.26 7.31 17.6-2.32 33-11.26 49.36-17.34 32.06-11.9 61.6-6 93.72 3.76 53.18 16.21 103.7 35.43 157.79 12.43z"/><path d="m824.2 248c-53.74 17.87-103.73 1.05-156.34-12.59-31.72-8.22-59.6-12.31-91.23-2.5-17.6 5.46-34.67 13.87-53.12 16.22-20.69 2.65-42.71-3-63.07-6.57-31.23-5.4-62.27-11.92-93.3-18.34-33.89-7-67.74-14.31-101.78-20.51-19.82-3.61-40.43-9.13-60.44-5-29.61 6.2-57 22.58-83.83 35.77-20.41 10-52.76 29.9-76.19 18-4.42-2.24-7.24-7.63-11.66-9.45-8.22-3.39-19 1.38-26.35 4.93v-3.06c7.46-4 17.84-8.73 26.28-5.27 4.69 1.92 7.74 7.76 12.39 10.18 23.72 12.35 55.68-8.17 76-18.9 26.25-13.9 53-31.28 82.35-37.72 20-4.39 40.73 1.36 60.53 5.11 34.27 6.5 68.33 14.17 102.42 21.57 31.22 6.77 62.45 13.62 93.89 19.27 20.35 3.66 42.47 9.54 63.17 6.8 18.13-2.4 34.61-11.08 51.78-16.72 31.44-10.33 59.47-5.71 91 2.86 53.06 14.44 103.4 32.32 157.6 12.82z"/><path d="m824.2 254.87c-84.4 23.06-163.06-35.23-246.4-13-18.15 4.84-36.09 12.06-54.84 14.33-20.45 2.49-42-2.4-62.24-5.54-31-4.8-61.81-10.49-92.64-16.14s-61.7-11.47-92.65-16.62c-20.46-3.41-43.34-9.3-64-6.23-30.68 4.56-60.17 19-88.72 30.39-21 8.38-55.67 27.29-78.93 16.63-3.91-1.8-6.44-6.46-10.25-7.91-8.09-3.07-19.18 1.25-26.61 4.12v-3.13c7.28-3.13 18.52-7.82 26.57-4.45 4.16 1.75 6.74 6.65 11 8.67 23.6 11.09 57.54-8.67 78.39-17.89 27.76-12.28 56.5-27.89 86.79-32.78 20.68-3.34 44 3 64.37 6.59 31.27 5.53 62.41 11.77 93.58 17.84s62.26 12.17 93.56 17.3c20.27 3.32 42 8.52 62.5 5.89 18.2-2.34 35.38-9.93 52.88-15 83.64-24.21 162.54 39.3 247.64 13.82z"/><path d="m823.65 258.69a26 26 0 0 1 -.73 3.27c-50.66 10.67-98.54-1.35-148.41-10.95-32.77-6.3-61.09-7.29-93.55-.31-19.96 4.3-39.76 10.4-60.06 12.64s-41.34-2-61.48-4.65c-30.11-4-60.13-8.67-90.14-13.32s-60.06-9.43-90.18-13.7c-20.48-2.92-42.4-7.67-63-5.26-31.83 3.68-63.16 15.28-93.65 24.61-21.55 6.61-57.55 23.13-80.44 13.59-3.27-1.37-5.37-5.16-8.47-6.26-7.46-2.58-18.2.82-25.5 3a29.23 29.23 0 0 1 -.65-3c7.26-2.44 18.51-6.47 26.15-3.58 3.48 1.35 5.65 5.48 9.33 7 23.34 9.84 58.1-7.51 79.68-15 29.57-10.33 60-23.27 91.25-27.4 20.65-2.72 43 2.58 63.5 5.75 30.53 4.68 61 10 91.42 15.07s60.85 10.33 91.38 14.7c20.24 2.89 41.47 7.37 61.85 5.06 19.51-2.17 38.45-8.91 57.48-13.46 82.72-19.63 160.92 32.13 244.22 12.2z"/><path d="m821.65 265.78a28.3 28.3 0 0 1 -1.55 3.45c-45.74 6.6-89.76-1.38-135.09-8.64-34.11-5.44-64.57-6.23-98.54-.9-13.84 2.17-27.68 5-41.58 7.26a41.67 41.67 0 0 0 -5.51-.38 39.49 39.49 0 0 0 -16 3.38c-2.62.27-5.27.51-7.92.69-47 3.34-98.16-8.33-144.73-14.05-48-5.88-101.6-19.13-150.06-14.49-32.26 3.07-64.1 10.9-95.67 17.69-23.79 5.13-60.24 19-84.64 10.88-2.72-.89-4.44-4-6.85-4.65-6.78-1.92-16 .14-23.2 1.83a25.43 25.43 0 0 1 -1.24-3.06c7.47-1.93 17.18-4.51 24.54-2.38 2.69.79 4.79 4.37 7.75 5.44 23.88 8.78 60.61-6.68 83.6-12.6 30.53-7.85 61.47-17 92.9-20.55 20.68-2.37 42.09 1.79 62.61 4.41 29.87 3.78 59.71 8 89.55 12.15 46.78 6.47 99.44 20 146.84 16.11 22.78-1.86 45.26-8 67.66-12.12 33.87-6.19 63.71-4.89 97.72 1.21 46.82 8.39 92.01 17.65 139.41 9.32z"/><path d="m513.77 274.15c.83 0 1.65-.11 2.45-.17a40.25 40.25 0 0 0 -4 3.33h-.07c-46.05 2.21-94-5.54-139.81-9.5-38.38-3.3-78.27-9.53-117.37-10.32h-.69c-9.08-.17-18.14 0-27.08.48-34.15 2-68.15 7.12-102 11.56-26.83 3.55-60.2 12.81-87.2 7.2-8.6-1.83-14.73-2.58-23.5-2a34.34 34.34 0 0 1 -2.38-3.47c6.88-1.26 14.73-2.76 21.27-1.26 2.06.45 3.2 3.2 5.78 3.79 26.43 6.19 59.92-4.51 85.91-8.95 32.73-5.58 65.67-12 98.82-14.53 48.18-3.68 99.78 7.13 147.58 12.12 46.26 4.8 95.69 14.47 142.29 11.72z"/><path d="m818 272.91a35 35 0 0 1 -2.58 3.37c-41.62 3.37-82.37-1.86-123.81-6.61a452.75 452.75 0 0 0 -100.61-.38c-10 1-20.14 2.28-30.22 3.48a40.89 40.89 0 0 0 -6.19-3.24c11.43-1.65 22.78-3.44 34.18-4.92a364.29 364.29 0 0 1 99.54.62c43.44 5.99 85.91 12.53 129.69 7.68z"/><path d="m36.62 279.83a141.49 141.49 0 0 0 14.22 1.17c-9.85.1-19.66.27-29.47.65a37.8 37.8 0 0 1 -3.71-3.23 126.31 126.31 0 0 1 18.96 1.41z"/><path d="m51 281c4.41-.07 8.81-.11 13.25-.14-4.43.21-8.87.27-13.25.14z"/><path d="m230.71 266c7.13-.31 14.25-.41 21.41-.34a37.26 37.26 0 0 1 -5.92 10.12c-40.17.07-80.3 1.17-121 3.58-20.37 1.2-40.58 1.34-60.61 1.48 20.38-.86 41.27-4.51 60.61-6.33 35.09-3.25 70.27-7.01 105.51-8.51z"/><path d="m508.57 280.58-1.34 1c-44.23.27-88.39-.8-133.16-2.83-37.35-1.68-74.21-2.75-111-3a35.7 35.7 0 0 1 -5.92-10.12c38.65.56 77.79 5.2 116.06 7.71 44.67 3.04 90.52 8.66 135.36 7.24z"/><path d="m812 279.72a38.26 38.26 0 0 1 -4.23 3.31c-70.56 2-140.84-7.47-211.57-3.89-8.82.45-17.59.82-26.37 1.17-.86-.76-1.69-1.52-2.51-2.31-.48-.48-1-1-1.52-1.41 9.26-.79 18.52-1.62 27.78-2.31 73.22-5.61 145.42 9.33 218.42 5.44z"/><path d="m27 285.2c69.66-2 140.88-3 212.05-2.79a36.62 36.62 0 0 1 -21.27 6.78h-174.1a36.69 36.69 0 0 1 -16.68-3.99z"/><path d="m375 284.06c42 1 83.88 1.48 125.77 1.38a33.56 33.56 0 0 1 -15.31 3.75h-194.07a36.87 36.87 0 0 1 -21.1-6.64c35.04.2 70.01.72 104.71 1.51z"/><path d="m802 286.16a36.37 36.37 0 0 1 -14.63 3h-194.06a34.16 34.16 0 0 1 -16.93-4.58c7.54-.14 15.11-.31 22.65-.48 67.7-1.69 135.33 2.75 202.97 2.06z"/></g><path d="m258 259.35-6.88-.17.17-9 6.71.17zm-.17-15.66h-6.54v-.35h6.54zm.17-6.89-6.88-.17.17-13.94 6.71.17zm-.17-20.65h-6.54v-.34h6.54zm.17-6.88-6.88-.17.17-13.94 6.71.17zm-.17-20.65h-6.54v-.35h6.54zm.17-6.89-6.88-.17.17-13.94 6.71.17zm-.17-20.65h-6.54v-.34h6.54zm.17-6.88-6.88-.17.17-13.94 6.71.17zm-.17-20.65h-6.54v-.35h6.54zm.17-6.89-6.88-.17.17-13.94 6.71.17zm-.14-20.66h-6.54v-.34h6.54zm.17-6.88-6.88-.12.17-14 6.71.17zm-.17-20.65h-6.54v-.35h6.54zm.17-6.89-6.88-.17.17-13.94 6.71.17zm-.17-20.65h-6.54v-.33h6.54zm.17-6.88-6.88-.17.17-7.06 6.68.18z" fill="#727272"/></svg>