<?xml version="1.0" encoding="utf-8"?>
<!-- Generator: Adobe Illustrator 25.4.1, SVG Export Plug-In . SVG Version: 6.00 Build 0)  -->
<svg version="1.1" id="mdi-airplane-landing" xmlns="http://www.w3.org/2000/svg" xmlns:xlink="http://www.w3.org/1999/xlink"
	 x="0px" y="0px" viewBox="0 0 512 512" style="enable-background:new 0 0 512 512;" xml:space="preserve">
<g>
	<g>
		<polygon points="286,232.2 267.9,50.9 232.8,33.2 200.3,188.9 		"/>
		<path d="M423.5,311.7L141.9,170.3l-9-50.4l-28.5-14.4l-20,102.9l31.3,15.2l98.5,49.9l81.9,40.6l99.3,47.3
			c15.5,7.6,33.6,2.5,41.2-13.2C443.3,335.2,438,317.3,423.5,311.7z"/>
	</g>
	<path d="M82.7,440.6L82.7,440.6c0,9.2,8,15.2,20.2,15.2H410c12.2,0,20.2-6,20.2-15.2l0,0c0-9.2-8-15.2-20.2-15.2H102.9
		C90.7,425.4,82.7,433,82.7,440.6z"/>
</g>
</svg>
