<svg viewBox="0 0 180 86.85" xmlns="http://www.w3.org/2000/svg"><g fill="#3a3a3a"><path d="m2.91 86.19a2.94 2.94 0 0 1 -2.91-3.19 2.9 2.9 0 0 1 3.33-2.7 3 3 0 1 1 -.43 5.9z"/><path d="m3.87 76.59a2.93 2.93 0 0 1 -2.53-3.5 2.9 2.9 0 0 1 3.66-2.31 3 3 0 1 1 -1.08 5.81z"/><path d="m5.88 67.15a2.93 2.93 0 0 1 -2.12-3.76 2.89 2.89 0 0 1 3.84-1.89 3 3 0 1 1 -1.72 5.65z"/><path d="m8.93 58a2.94 2.94 0 0 1 -1.69-4 2.9 2.9 0 0 1 4-1.46 3 3 0 1 1 -2.31 5.46z"/><path d="m13 49.25a2.94 2.94 0 0 1 -1.24-4.14 2.9 2.9 0 0 1 4.17-1 2.9 2.9 0 0 1 1.24 4.13 2.93 2.93 0 0 1 -4.17 1.01z"/><path d="m18 41a2.94 2.94 0 0 1 -.78-4.25 2.89 2.89 0 0 1 4.25-.53 3 3 0 1 1 -3.47 4.78z"/><path d="m23.86 33.35a3 3 0 1 1 4-4.37 3 3 0 1 1 -4 4.37z"/><path d="m30.55 26.38a3 3 0 0 1 .17-4.32 2.91 2.91 0 0 1 4.27.42 3 3 0 1 1 -4.44 3.9z"/><path d="m38 20.18a2.94 2.94 0 0 1 .65-4.27 2.89 2.89 0 0 1 4.19.88 3 3 0 1 1 -4.84 3.39z"/><path d="m46 14.85a3 3 0 1 1 5.22-2.85 3 3 0 1 1 -5.22 2.85z"/><path d="m54.62 10.45a3 3 0 1 1 5.47-2.24 3 3 0 1 1 -5.47 2.24z"/><path d="m63.61 7a3 3 0 1 1 5.68-1.62 3 3 0 1 1 -5.68 1.62z"/><path d="m73 4.64a2.93 2.93 0 0 1 2.4-3.58 2.89 2.89 0 0 1 3.4 2.6 3 3 0 1 1 -5.82 1z"/><path d="m82.52 3.29a2.93 2.93 0 0 1 2.81-3.29 2.89 2.89 0 0 1 3.09 3 3 3 0 1 1 -5.9.32z"/><path d="m92.18 3a2.94 2.94 0 0 1 3.14-3 2.9 2.9 0 0 1 2.76 3.28 3 3 0 1 1 -5.9-.28z"/><path d="m101.8 3.77a3 3 0 1 1 5.83 1 3 3 0 1 1 -5.83-1z"/><path d="m111.27 5.6a2.93 2.93 0 0 1 3.73-2.2 2.89 2.89 0 0 1 2 3.8 3 3 0 1 1 -5.68-1.6z"/><path d="m120.48 8.46a2.94 2.94 0 0 1 3.94-1.77 2.9 2.9 0 0 1 1.53 4 3 3 0 1 1 -5.47-2.23z"/><path d="m129.31 12.34a3 3 0 0 1 4.12-1.34 2.9 2.9 0 0 1 1.07 4.15 2.9 2.9 0 0 1 -4.11 1.32 2.94 2.94 0 0 1 -1.08-4.13z"/><path d="m137.67 17.18a2.93 2.93 0 0 1 4.23-.86 2.89 2.89 0 0 1 .61 4.24 3 3 0 1 1 -4.84-3.38z"/><path d="m145.43 22.9a2.93 2.93 0 0 1 4.3-.39 2.88 2.88 0 0 1 .14 4.28 3 3 0 1 1 -4.44-3.89z"/><path d="m152.51 29.43a2.93 2.93 0 0 1 4.32.09 3.13 3.13 0 0 1 -4.65 4.18 2.93 2.93 0 0 1 .33-4.27z"/><path d="m158.86 36.73a2.94 2.94 0 0 1 4.28.56 3.13 3.13 0 0 1 -5.08 3.65 2.93 2.93 0 0 1 .8-4.21z"/><path d="m164.34 44.66a3 3 0 0 1 4.2 1 3.13 3.13 0 1 1 -4.2-1z"/><path d="m168.93 53.17a2.94 2.94 0 0 1 4 1.49 3.13 3.13 0 0 1 -5.76 2.44 2.93 2.93 0 0 1 1.76-3.93z"/><path d="m172.52 62.1a2.94 2.94 0 0 1 3.87 1.9 3.14 3.14 0 0 1 -6 1.79 2.93 2.93 0 0 1 2.13-3.69z"/><path d="m175.11 71.4a2.93 2.93 0 0 1 3.62 2.35 3.13 3.13 0 0 1 -6.15 1.1 2.92 2.92 0 0 1 2.53-3.45z"/><path d="m176.65 81a2.93 2.93 0 0 1 3.35 2.69 3.13 3.13 0 0 1 -6.24.42 2.93 2.93 0 0 1 2.89-3.11z"/><path d="m110.45 56.06-5.75.59c-10.7-6.13-30.88-17.55-30.88-17.55h-4.9c.23.08 10 12.72 15.33 19.69-11.54 1.21-20.72 2.21-20.72 2.21s-11.42-9.93-11.17-9.93h-4.1l8.32 21.13h76.19s-2.7-18.13-22.32-16.14z"/><path d="m50.19 84a88.15 88.15 0 0 1 20.69-5.35 142.51 142.51 0 0 1 20.69-1.45 145.31 145.31 0 0 1 20.69 1.47 89 89 0 0 1 20.74 5.33v.8l-10.39.2-10.35.07-20.69.14-20.69-.11-10.35-.1-10.34-.19z"/></g></svg>