<svg viewBox="0 0 101.56 101.56" xmlns="http://www.w3.org/2000/svg"><circle cx="50.78" cy="50.78" fill="#ddd" r="50.78"/><g fill="#fff"><path d="m77.67 64.91c-.06-.38-.14-.79-.24-1.17a8.15 8.15 0 0 0 -2.91-4.23 8.33 8.33 0 0 0 -4.83-1.68h-5.22-.33c-4.47 0-8.91 0-13.38 0s-8.92 0-13.39 0h-.32c-1.75 0-3.48 0-5.22 0a8.2 8.2 0 0 0 -7.74 5.91 5.79 5.79 0 0 0 -.24 1.17 31.42 31.42 0 0 0 -.15 5 13.85 13.85 0 0 0 4.61 10.2 26.7 26.7 0 0 0 8.53 5.12 39.34 39.34 0 0 0 5.16 1.58h.08a39.59 39.59 0 0 0 17.33 0h.08a41.11 41.11 0 0 0 5.14-1.54 26 26 0 0 0 8.53-5.12 13.81 13.81 0 0 0 4.59-10.15 26.52 26.52 0 0 0 -.08-5.09z"/><path d="m50.64 52a18.93 18.93 0 1 0 -18.77-19 19 19 0 0 0 18.77 19z"/></g></svg>