<?xml version="1.0" encoding="utf-8"?>
<!-- Generator: Adobe Illustrator 25.4.1, SVG Export Plug-In . SVG Version: 6.00 Build 0)  -->
<svg version="1.1" id="mdi-airplane-landing" xmlns="http://www.w3.org/2000/svg" xmlns:xlink="http://www.w3.org/1999/xlink"
	 x="0px" y="0px" viewBox="0 0 512 512" style="enable-background:new 0 0 512 512;" xml:space="preserve">
<g>
	<g>
		<polygon points="184.8,258.8 59.2,152.1 92.7,129.1 266.5,202.3 		"/>
		<path d="M446.6,122.7c10.5,14.7,6.3,33.5-8.3,44l-92.2,67l-77.5,54.5L174.3,353L145,373.9l-83.7-69.1L88.5,286l50.3,16.8
			l268.1-186.3C419.3,106.1,438.1,110.2,446.6,122.7z"/>
	</g>
	<path d="M76,448.5L76,448.5c0,9.6,8.3,15.9,20.9,15.9H415c12.6,0,20.9-6.3,20.9-15.9l0,0c0-9.6-8.3-15.9-20.9-15.9H97
		C84.4,432.5,76,440.5,76,448.5z"/>
</g>
</svg>
