<svg viewBox="0 0 2160 2160" xmlns="http://www.w3.org/2000/svg"><path d="m0 0h2160v2160h-2160z" fill="none"/><path d="m808.64 766.9 115 .47v-126.79q-18.15-1.82-36.78-1.82h-331a147.15 147.15 0 0 0 -145.38 124.52c-.08.53-.16 1.09-.25 1.62l24.67.12 28.58.16a96.39 96.39 0 0 1 69.83 30.59l-29.88 27.85a54.72 54.72 0 0 0 -40.15-17.57l-28.38-.14-26.16-.15v715.75h39.34l.55-180.15 40.87.21-.5 179.94h26.36l.55-179.8 40.87.2-.56 179.6h26.36l.55-179.47 40.87.2-.53 179.27h42.79v-533.33a55.18 55.18 0 0 1 55.12-55.18h165.52a73 73 0 0 1 36.78 9.85v-134.61l-13.9-.06v.08l-101.39-.49.21-40.87zm-251.77 548.65-40.87-.2.51-101.39 40.87.2zm.63-127.75-40.87-.2.51-101.38 40.87.21zm.63-127.73-40.86-.21.51-101.37 40.87.2zm.64-127.74-40.87-.2.37-70.54a55.52 55.52 0 0 0 -4.39-21.93l37.59-16a95.67 95.67 0 0 1 7.67 38.16zm223.23-124.71-114.27-.57.21-40.87 114.27.58z" fill="#3a3a3a"/><path d="m224.84 638.76a55.18 55.18 0 0 0 -55.18 55.17v183.91a55.18 55.18 0 0 0 55.18 55.16h147.16v-127.42l-39.27-.37.2-40.86 40.28.36a184 184 0 0 1 72.45-126zm81.49 166.31-101.4-.49.21-40.87 101.39.49z" fill="#3a3a3a"/><g fill="#00a65c"><path d="m1254.63 999.3c0-.72 0-1.43 0-2.15 0-2-.1-3.9-.21-5.84 0-.27 0-.51 0-.76-.1-2.45-.22-4.88-.38-7.32v-.1c-.13-1.92-.25-3.84-.43-5.76-.09-1.16-.17-2.33-.29-3.51-.12-1.54-.27-3.07-.43-4.6-.12-1.25-.26-2.5-.39-3.74-.08-.82-.18-1.64-.28-2.43-.13-1-.23-2-.37-3-.06-.63-.14-1.26-.25-1.9-.18-1.45-.36-2.9-.59-4.33l-.24-1.76q-.49-3.3-1-6.62c0-.06 0-.14 0-.2s-.06-.37-.1-.55c-.22-1.41-.47-2.82-.73-4.21-.19-1-.37-2-.58-3-.28-1.49-.57-3-.88-4.47-.22-1.15-.47-2.31-.71-3.46-.06-.36-.14-.71-.23-1.06q-.36-1.71-.75-3.39c-.31-1.47-.66-2.94-1-4.39-.23-.86-.43-1.7-.64-2.54-.39-1.63-.79-3.25-1.22-4.86-.53-2.06-1.09-4.11-1.66-6.17s-1.18-4.13-1.8-6.19a368.68 368.68 0 0 0 -279.01-254.88v130.74a242.43 242.43 0 0 1 79.1 41.3l-25.26 32.1a200.84 200.84 0 0 0 -53.84-30.25v186.58a73.57 73.57 0 0 1 -73.56 73.56h-128.74a55.18 55.18 0 0 0 -55.16 55.16v239.08l110.35 147.13h122.53l-53.23-71.79 32.82-24.35 71.35 96.14h120.77l-121.08-160.78q14.87-4.17 29.2-9.52l5.62-2.15.15-.06q11-4.35 21.72-9.36c.67-.3 1.33-.63 2-.94 2.9-1.38 5.78-2.82 8.64-4.27.37-.18.72-.36 1.07-.55 1.73-.88 3.45-1.8 5.17-2.72s3.55-1.92 5.33-2.9q4.79-2.67 9.48-5.45c2.29-1.35 4.54-2.74 6.78-4.15 1.23-.76 2.44-1.53 3.66-2.31q9-5.76 17.56-12c1.28-.94 2.57-1.88 3.86-2.84 1.51-1.12 3-2.24 4.49-3.41s2.76-2.12 4.11-3.21c1.18-.94 2.35-1.86 3.49-2.82 1-.77 2-1.57 2.91-2.39 1.22-1 2.45-2 3.65-3.06q3.53-3 7-6.11l3.76-3.43c1.17-1.07 2.31-2.15 3.46-3.23 2.3-2.19 4.59-4.4 6.84-6.64 1.12-1.13 2.25-2.27 3.35-3.4.43-.41.84-.81 1.25-1.24.65-.68 1.31-1.35 1.94-2 .12-.14.24-.28.39-.43l3-3.2q5.4-5.76 10.48-11.77s.07-.08.09-.13c1.35-1.57 2.69-3.16 4-4.76s2.66-3.25 4-4.9 2.47-3.11 3.67-4.68a5.37 5.37 0 0 1 .35-.45c1-1.33 2-2.68 3-4 .38-.53.79-1.08 1.2-1.61 1-1.43 2.09-2.86 3.11-4.31 1.22-1.7 2.43-3.41 3.63-5.15s2.38-3.47 3.54-5.23c1-1.43 1.9-2.86 2.82-4.31.51-.78 1-1.54 1.47-2.31.74-1.15 1.47-2.31 2.17-3.46.24-.36.47-.73.67-1.1q1.5-2.42 2.94-4.86c1.07-1.78 2.11-3.58 3.15-5.4l.12-.22q1.41-2.46 2.76-5c.31-.51.57-1 .84-1.53.65-1.18 1.31-2.39 1.94-3.62.92-1.71 1.8-3.43 2.68-5.15.51-1 1-2 1.49-3 .67-1.35 1.35-2.7 2-4 .8-1.63 1.57-3.24 2.31-4.88s1.66-3.6 2.45-5.39q1-2.37 2.07-4.72 2.7-6.29 5.15-12.69c.87-2.31 1.73-4.62 2.57-7 .74-2.06 1.47-4.15 2.17-6.21.43-1.25.83-2.5 1.24-3.74s.78-2.33 1.13-3.5c1.9-6 3.63-12 5.23-18.06a.12.12 0 0 0 0-.08q1.68-6.47 3.12-13c.5-2.18.94-4.37 1.39-6.56 0 0 0-.08 0-.12.31-1.45.58-2.9.86-4.35.21-1 .39-2 .58-3 .26-1.39.51-2.8.73-4.21 0-.18.06-.36.1-.55s0-.14 0-.2q.55-3.32 1-6.62c.08-.57.16-1.17.24-1.76.23-1.43.41-2.88.59-4.33.11-.64.19-1.27.25-1.9.14-1 .24-2 .37-3 .1-.81.2-1.61.28-2.43.13-1.24.27-2.49.39-3.74.16-1.53.31-3.06.43-4.59.1-1.17.2-2.31.29-3.48.16-1.92.3-3.86.43-5.8v-.12c.16-2.44.28-4.87.38-7.32 0-.24 0-.47 0-.72.11-1.94.17-3.9.21-5.86 0-.69 0-1.41 0-2.12.06-2.42.08-4.87.08-7.3s.14-4.91.08-7.34zm-421.58 261.08a54.3 54.3 0 0 1 54.48-53.92c3.05 0 6.15 0 9.2-.15l1.63 40.83c-3.66.14-7.37.2-11 .18a13.38 13.38 0 0 0 -13.41 13.27l-.26 56.6-40.87-.21zm33.88 168.17-34.47-46.44.19-38.77 40.86.21-.12 25.15 26.36 35.5zm194.15-591.32a242.26 242.26 0 0 1 57.92 93.33l-38.75 13a200.52 200.52 0 0 0 -48.06-77.44zm-134.15 407.09-6.4-40.38a203.8 203.8 0 0 0 84.64-34.24l23.48 33.47a245.38 245.38 0 0 1 -101.72 41.15zm124.24-59-27.24-30.47a201.27 201.27 0 0 0 52.47-74.54l37.93 15.24a242.44 242.44 0 0 1 -63.16 89.76zm80.18-174.32a239.39 239.39 0 0 1 -7.93 57.22l-39.5-10.52a197.82 197.82 0 0 0 6.58-47.39v-2.39a197.9 197.9 0 0 0 -4.06-41.24l40-8.25a242.25 242.25 0 0 1 4.9 49.69z"/><path d="m1633.48 1253q-37.68 24.9-86.17 24.89-71.55 0-113-53.62t-41.51-144.27q0-90.63 41.51-144.26t113-53.62q48.48 0 86.17 24.89t58.09 69.57h298.77q-19.15-107.25-77.24-187.66t-150.66-124.5q-92.61-44-210-44-136.64 0-237.48 58.09a391.58 391.58 0 0 0 -104 86.15 401.31 401.31 0 0 1 76.3 183.31 408 408 0 0 1 4.23 58.65 402.21 402.21 0 0 1 -48.92 192.71 406.87 406.87 0 0 1 -87.52 110c1.54 3.17 3.13 6.34 4.74 9.46q54.26 104.7 155.14 162.78t237.48 58.09q117.46 0 210-44.05t150.66-124.49q58.08-80.43 77.24-187.66h-298.74q-20.44 44.66-58.09 69.54z"/></g></svg>