<svg enable-background="new 0 0 2160 2160" viewBox="0 0 2160 2160" xmlns="http://www.w3.org/2000/svg"><path d="m0 0h2160v2160h-2160z" fill="#fff"/><path d="m808.6 686.9 115 .5v-126.8c-12.1-1.2-24.4-1.8-36.8-1.8h-331c-72.5 0-134.2 52.9-145.4 124.5-.1.5-.2 1.1-.2 1.6l24.7.1 28.6.2c26.5.2 51.7 11.2 69.8 30.6l-29.9 27.8c-10.4-11.2-24.9-17.6-40.1-17.6l-28.4-.1-26.2-.2v715.8h39.3l.5-180.2 40.9.2-.5 179.9h26.4l.5-179.8 40.9.2-.6 179.6h26.4l.5-179.5 40.9.2-.5 179.3h42.8v-533.2c0-30.5 24.7-55.1 55.1-55.2h165.5c12.9 0 25.6 3.4 36.8 9.8v-134.6l-13.9-.1v.1l-101.4-.5zm-251.7 548.7-40.9-.2.5-101.4 40.9.2zm.6-127.8-40.9-.2.5-101.4 40.9.2zm.6-127.7-40.9-.2.5-101.4 40.9.2zm.7-127.8-40.9-.2.4-70.5c0-7.5-1.5-15-4.4-21.9l37.6-16c5.1 12.1 7.8 25 7.7 38.2zm223.2-124.7-114.3-.6.2-40.9 114.3.6z" fill="#3a3a3a"/><path d="m224.8 558.8c-30.5 0-55.2 24.7-55.2 55.2v183.9c0 30.5 24.7 55.2 55.2 55.2h147.2v-127.5l-39.3-.4.2-40.9 40.3.4c5.8-50.2 32-95.7 72.5-126zm81.5 166.3-101.4-.5.2-40.9 101.4.5z" fill="#3a3a3a"/><g fill="#00a65c"><path d="m1254.6 919.3c0-.7 0-1.4 0-2.2 0-2-.1-3.9-.2-5.8 0-.3 0-.5 0-.8-.1-2.5-.2-4.9-.4-7.3v-.1c-.1-1.9-.2-3.8-.4-5.8-.1-1.2-.2-2.3-.3-3.5-.1-1.5-.3-3.1-.4-4.6-.1-1.2-.3-2.5-.4-3.7-.1-.8-.2-1.6-.3-2.4-.1-1-.2-2-.4-3-.1-.6-.1-1.3-.2-1.9-.2-1.5-.4-2.9-.6-4.3l-.2-1.8c-.3-2.2-.7-4.4-1-6.6 0-.1 0-.1 0-.2s-.1-.4-.1-.5c-.2-1.4-.5-2.8-.7-4.2-.2-1-.4-2-.6-3-.3-1.5-.6-3-.9-4.5-.2-1.2-.5-2.3-.7-3.5-.1-.4-.1-.7-.2-1.1-.2-1.1-.5-2.3-.8-3.4-.3-1.5-.7-2.9-1-4.4-.2-.9-.4-1.7-.6-2.5-.4-1.6-.8-3.2-1.2-4.9-.5-2.1-1.1-4.1-1.7-6.2s-1.2-4.1-1.8-6.2c-39.1-129.8-146.2-227.7-279-254.9v130.7c28.7 8.8 55.5 22.8 79.1 41.3l-25.3 32.1c-16.3-12.8-34.4-23-53.8-30.2v186.6c0 40.6-32.9 73.6-73.6 73.6h-128.7c-30.5 0-55.1 24.7-55.2 55.2v239.1l110.3 147.1h122.5l-53.2-71.8 32.8-24.3 71.3 96.1h120.8l-121.1-160.8c9.9-2.8 19.6-6 29.2-9.5l5.6-2.2.2-.1c7.3-2.9 14.6-6 21.7-9.4.7-.3 1.3-.6 2-.9 2.9-1.4 5.8-2.8 8.6-4.3.4-.2.7-.4 1.1-.6 1.7-.9 3.4-1.8 5.2-2.7s3.6-1.9 5.3-2.9c3.2-1.8 6.4-3.6 9.5-5.4 2.3-1.3 4.5-2.7 6.8-4.2 1.2-.8 2.4-1.5 3.7-2.3 6-3.8 11.9-7.8 17.6-12 1.3-.9 2.6-1.9 3.9-2.8 1.5-1.1 3-2.2 4.5-3.4s2.8-2.1 4.1-3.2c1.2-.9 2.3-1.9 3.5-2.8 1-.8 2-1.6 2.9-2.4 1.2-1 2.4-2 3.7-3.1 2.4-2 4.7-4 7-6.1l3.8-3.4c1.2-1.1 2.3-2.2 3.5-3.2 2.3-2.2 4.6-4.4 6.8-6.6 1.1-1.1 2.2-2.3 3.3-3.4.4-.4.8-.8 1.2-1.2.7-.7 1.3-1.3 1.9-2 .1-.1.2-.3.4-.4l3-3.2c3.6-3.8 7.1-7.8 10.5-11.8 5.1-6 .1-.1.1-.1 1.3-1.6 2.7-3.2 4-4.8s2.7-3.2 4-4.9 2.5-3.1 3.7-4.7c.1-.2.2-.3.3-.4 1-1.3 2-2.7 3-4 .4-.5.8-1.1 1.2-1.6 1-1.4 2.1-2.9 3.1-4.3 1.2-1.7 2.4-3.4 3.6-5.2s2.4-3.5 3.5-5.2c1-1.4 1.9-2.9 2.8-4.3.5-.8 1-1.5 1.5-2.3.7-1.2 1.5-2.3 2.2-3.5.2-.4.5-.7.7-1.1 1-1.6 2-3.2 2.9-4.9 1.1-1.8 2.1-3.6 3.2-5.4l.1-.2c.9-1.6 1.9-3.3 2.8-5 .3-.5.6-1 .8-1.5.7-1.2 1.3-2.4 1.9-3.6.9-1.7 1.8-3.4 2.7-5.2.5-1 1-2 1.5-3 .7-1.3 1.3-2.7 2-4 .8-1.6 1.6-3.2 2.3-4.9s1.7-3.6 2.4-5.4c.7-1.6 1.4-3.2 2.1-4.7 1.8-4.2 3.5-8.4 5.2-12.7.9-2.3 1.7-4.6 2.6-7 .7-2.1 1.5-4.2 2.2-6.2.4-1.2.8-2.5 1.2-3.7s.8-2.3 1.1-3.5c1.9-6 3.6-12 5.2-18.1v-.1c1.1-4.3 2.2-8.6 3.1-13 .5-2.2.9-4.4 1.4-6.6v-.1c.3-1.4.6-2.9.9-4.3.2-1 .4-2 .6-3 .3-1.4.5-2.8.7-4.2 0-.2.1-.4.1-.6s0-.1 0-.2c.4-2.2.7-4.4 1-6.6.1-.6.2-1.2.2-1.8.2-1.4.4-2.9.6-4.3.1-.6.2-1.3.2-1.9.1-1 .2-2 .4-3 .1-.8.2-1.6.3-2.4.1-1.2.3-2.5.4-3.7.2-1.5.3-3.1.4-4.6.1-1.2.2-2.3.3-3.5.2-1.9.3-3.9.4-5.8v-.1c.2-2.4.3-4.9.4-7.3 0-.2 0-.5 0-.7.1-1.9.2-3.9.2-5.9 0-.7 0-1.4 0-2.1.1-2.4.1-4.9.1-7.3s.2-5 .1-7.4zm-421.6 261.1c.2-29.9 24.6-54 54.5-53.9 3 0 6.2 0 9.2-.2l1.6 40.8c-3.7.1-7.4.2-11 .2-7.4 0-13.3 5.9-13.4 13.3l-.3 56.6-40.9-.2zm33.9 168.2-34.5-46.4.2-38.8 40.9.2-.1 25.2 26.4 35.5zm194.2-591.4c26.2 26.3 46 58.2 57.9 93.3l-38.8 13c-9.9-29.2-26.3-55.7-48.1-77.4zm-134.2 407.1-6.4-40.4c30.4-4.9 59.4-16.6 84.6-34.2l23.5 33.5c-30.3 21.2-65.1 35.3-101.7 41.1zm124.3-59-27.2-30.5c23-20.5 40.9-46 52.5-74.5l37.9 15.2c-14 34.4-35.6 65.1-63.2 89.8zm80.1-174.3c-.3 19.3-3 38.5-7.9 57.2l-39.5-10.5c4.1-15.5 6.3-31.4 6.6-47.4v-2.4c.1-13.9-1.3-27.7-4.1-41.2l40-8.2c3.3 16.4 5 33 4.9 49.7z"/><path d="m1633.5 1173c-25.1 16.6-53.8 24.9-86.2 24.9-47.7 0-85.4-17.9-113-53.6s-41.5-83.8-41.5-144.3c0-60.4 13.8-108.5 41.5-144.3s65.3-53.6 113-53.6c32.3 0 61 8.3 86.2 24.9s44.5 39.8 58.1 69.6h298.8c-12.8-71.5-38.5-134.1-77.2-187.7s-88.9-95.1-150.7-124.5c-61.7-29.3-131.7-44-210-44-91.1 0-170.3 19.4-237.5 58.1-39.4 22.5-74.6 51.6-104 86.2 40.4 53.7 66.6 116.8 76.3 183.3 2.8 19.4 4.2 39 4.2 58.7.1 67.3-16.7 133.6-48.9 192.7-22.6 41.5-52.2 78.7-87.5 110 1.5 3.2 3.1 6.3 4.7 9.5 36.2 69.8 87.9 124.1 155.1 162.8 67.3 38.7 146.4 58.1 237.5 58.1 78.3 0 148.3-14.7 210-44.1s111.9-70.9 150.7-124.5c38.7-53.6 64.5-116.2 77.2-187.7h-298.7c-13.7 29.7-33 52.9-58.1 69.5z"/></g></svg>