<svg viewBox="0 0 32.61 16.72" xmlns="http://www.w3.org/2000/svg"><g fill="#3a3a3a"><path d="m.52 15.49a.54.54 0 1 1 .09-1.07.53.53 0 0 1 .52.59.52.52 0 0 1 -.61.48z"/><path d="m.71 13.76a.53.53 0 0 1 -.45-.64.52.52 0 0 1 .66-.41.54.54 0 1 1 -.21 1z"/><path d="m1.09 12a.54.54 0 1 1 .32-1 .53.53 0 0 1 .38.69.52.52 0 0 1 -.7.31z"/><path d="m1.66 10.4a.53.53 0 0 1 -.3-.73.52.52 0 0 1 .73-.25.52.52 0 0 1 .3.72.53.53 0 0 1 -.73.26z"/><path d="m2.39 8.84a.53.53 0 1 1 .54-.92.52.52 0 0 1 .22.75.54.54 0 0 1 -.76.17z"/><path d="m3.3 7.36a.54.54 0 0 1 -.14-.77.53.53 0 0 1 .78-.09.52.52 0 0 1 .13.77.53.53 0 0 1 -.77.09z"/><path d="m4.38 6a.54.54 0 0 1 -.06-.79.53.53 0 0 1 .78 0 .54.54 0 1 1 -.72.79z"/><path d="m5.58 4.73a.53.53 0 0 1 0-.78.52.52 0 0 1 .81.05.54.54 0 1 1 -.81.7z"/><path d="m6.93 3.62a.55.55 0 0 1 .12-.78.52.52 0 0 1 .76.16.52.52 0 0 1 -.12.77.54.54 0 0 1 -.76-.15z"/><path d="m8.37 2.68a.54.54 0 1 1 .94-.52.54.54 0 0 1 -.21.76.52.52 0 0 1 -.73-.24z"/><path d="m9.92 1.88a.54.54 0 0 1 .29-.73.53.53 0 0 1 .71.33.53.53 0 0 1 -.29.73.55.55 0 0 1 -.71-.33z"/><path d="m11.56 1.27a.54.54 0 1 1 1-.29.54.54 0 1 1 -1 .29z"/><path d="m13.25.84a.53.53 0 0 1 .44-.65.52.52 0 0 1 .61.47.53.53 0 1 1 -1.05.18z"/><path d="m15 .6a.54.54 0 0 1 .51-.6.52.52 0 0 1 .49.54.52.52 0 0 1 -.51.59.53.53 0 0 1 -.49-.53z"/><path d="m16.7.55a.53.53 0 0 1 .57-.55.52.52 0 0 1 .5.59.52.52 0 0 1 -.57.54.54.54 0 0 1 -.5-.58z"/><path d="m18.42.68a.54.54 0 1 1 1.06.17.54.54 0 1 1 -1.06-.17z"/><path d="m20.13 1a.54.54 0 1 1 1 .29.54.54 0 0 1 -.68.4.54.54 0 0 1 -.32-.69z"/><path d="m21.8 1.52a.53.53 0 1 1 1 .4.53.53 0 0 1 -.71.33.54.54 0 0 1 -.29-.73z"/><path d="m23.38 2.21a.54.54 0 0 1 .75-.21.53.53 0 0 1 .19.75.52.52 0 0 1 -.74.24.53.53 0 0 1 -.2-.78z"/><path d="m24.89 3.08a.53.53 0 0 1 .77-.16.51.51 0 0 1 .11.76.52.52 0 0 1 -.76.16.53.53 0 0 1 -.12-.76z"/><path d="m26.29 4.09a.54.54 0 1 1 .81.71.54.54 0 1 1 -.81-.71z"/><path d="m27.58 5.28a.54.54 0 0 1 .79 0 .52.52 0 0 1 -.06.77.52.52 0 0 1 -.78 0 .53.53 0 0 1 .05-.77z"/><path d="m28.73 6.58a.53.53 0 1 1 .63.86.53.53 0 1 1 -.63-.86z"/><path d="m29.72 8a.54.54 0 0 1 .77.18.57.57 0 1 1 -.77-.18z"/><path d="m30.56 9.53a.54.54 0 1 1 -.3.71.53.53 0 0 1 .3-.71z"/><path d="m31.23 11.13a.53.53 0 0 1 .7.35.57.57 0 1 1 -.7-.35z"/><path d="m31.71 12.8a.54.54 0 0 1 .66.42.52.52 0 0 1 -.45.63.54.54 0 1 1 -.21-1z"/><path d="m32 14.52a.52.52 0 0 1 .61.49.52.52 0 0 1 -.52.57.53.53 0 1 1 -.09-1.06z"/><path d="m19.74 12.16-1-.43c-1.12-1.93-3.25-5.55-3.25-5.55l-.77-.45s.41 2.9.62 4.49c-1.92-.86-3.46-1.53-3.46-1.53s-.89-2.6-.85-2.58l-.64-.37-.57 4.07 12 6.91a3.53 3.53 0 0 0 -2.08-4.56z"/></g></svg>