<svg viewBox="0 0 809.81 246.02" xmlns="http://www.w3.org/2000/svg"><g fill="#25334e"><path d="m294.07 77.27v13.5q0 9.81 5.87 15.77t19.89 5.95h23.83q14 0 19.8-5.95t5.79-15.77v-23.13q0-9.81-5.17-15.6t-18.84-5.78h-16.47a4.83 4.83 0 0 1 -3.33-1 3.76 3.76 0 0 1 -1.05-2.9v-16.6a3.72 3.72 0 0 1 1.05-2.89 4.83 4.83 0 0 1 3.33-1h5.08a4.83 4.83 0 0 1 3.33 1 3.72 3.72 0 0 1 1.05 2.89v6.82h30.67v-10.85q0-9.81-5.79-15.77t-19.8-6h-24q-14 0-19.8 6t-5.79 15.77v23.13q0 9.81 5 15.94t18.66 6.14h16.82a4.83 4.83 0 0 1 3.33 1 3.73 3.73 0 0 1 1.05 2.89v15.91a3.73 3.73 0 0 1 -1.05 2.89 4.83 4.83 0 0 1 -3.33 1h-5.08a4.83 4.83 0 0 1 -3.33-1 3.73 3.73 0 0 1 -1.05-2.89v-9.47z"/><path d="m483.25 112.49v-60q0-9-5-14.41t-16.25-5.48h-2.88q-7.53 0-12.25 4.24a12.06 12.06 0 0 0 -3.72 5.93 17.56 17.56 0 0 0 -3.15-4.77q-5-5.43-16.33-5.44h-2.88q-7.53 0-11.29 4a13.38 13.38 0 0 0 -3.28 6.31v-10.27h-26.72v79.89h27.22v-55.07a5.08 5.08 0 0 1 1.12-3.69 4.36 4.36 0 0 1 3.2-1.12h2.72a4.46 4.46 0 0 1 3.05.88 3.42 3.42 0 0 1 1 2.64v56.36h27.19v-55.07a5.08 5.08 0 0 1 1.12-3.69 4.34 4.34 0 0 1 3.2-1.12h2.68a4.43 4.43 0 0 1 3 .88 3.42 3.42 0 0 1 1 2.64v56.36z"/><path d="m557.92 112.49v-79.89h-26.74v10.31a13.38 13.38 0 0 0 -3.28-6.31q-3.76-4-11.29-4h-2.88q-11.37 0-16.33 5.44t-5 14.41v40.19q0 9 5 14.41t16.33 5.44h2.88q7.53 0 11.29-4a12.93 12.93 0 0 0 2.8-4.63v8.63zm-28.26-21.13a4.27 4.27 0 0 1 -3.28 1.12h-2.72a4.38 4.38 0 0 1 -3-.88 3.41 3.41 0 0 1 -1-2.64v-32.83a3.42 3.42 0 0 1 1-2.64 4.43 4.43 0 0 1 3-.88h2.72a4.31 4.31 0 0 1 3.28 1.12 5.37 5.37 0 0 1 1 3.69v30.26a5.32 5.32 0 0 1 -1 3.68z"/><path d="m613.49 55.5v-23.7h-2.4a19.4 19.4 0 0 0 -9.61 2.2 15 15 0 0 0 -6.09 6.24 18.11 18.11 0 0 0 -1.6 4.58v-12.22h-26.74v79.89h27.22v-46.11q0-10.89 10.09-10.88z"/><path d="m628.79 92.64q0 9 5.37 14.41t18.17 5.44h13.61v-20h-5.94a4.43 4.43 0 0 1 -3-.88 3.4 3.4 0 0 1 -1-2.61v-36.39h10.1v-20h-10.1v-15.7h-27.21v15.69h-8.79v20h8.8z"/><path d="m345.06 133.52h-24.7q-14 0-19.89 6t-5.87 15.77v69q0 9.81 5.87 15.77t19.89 6h24.7q14 0 19.89-6t5.87-15.77v-19.63h-30.66v17.34a3.72 3.72 0 0 1 -1.05 2.89 4.85 4.85 0 0 1 -3.33 1h-6.14a4.82 4.82 0 0 1 -3.32-1 3.69 3.69 0 0 1 -1.06-2.89v-64.47a3.73 3.73 0 0 1 1.06-2.9 4.82 4.82 0 0 1 3.32-1h6.14a4.85 4.85 0 0 1 3.33 1 3.76 3.76 0 0 1 1.05 2.9v18h30.66v-20.28q0-9.81-5.87-15.77t-19.89-5.96z"/><path d="m427.8 158.58h-22.25q-14 0-19.45 6t-5.43 15.76v44q0 9.81 5.43 15.77t19.45 6h22.25q14 0 19.45-6t5.43-15.77v-44q0-9.81-5.43-15.76t-19.45-6zm-4.38 47v15.94a3.74 3.74 0 0 1 -1.05 2.9 4.83 4.83 0 0 1 -3.33 1h-4.73a4.83 4.83 0 0 1 -3.33-1 3.74 3.74 0 0 1 -1.05-2.9v-38.41a3.73 3.73 0 0 1 1.05-2.89 4.83 4.83 0 0 1 3.33-1h4.69a4.83 4.83 0 0 1 3.33 1 3.73 3.73 0 0 1 1.05 2.89v22.43z"/><path d="m504.15 214.12v4.74a5.88 5.88 0 0 1 -1.14 4 4.69 4.69 0 0 1 -3.6 1.22h-3a4.82 4.82 0 0 1 -3.32-1 3.74 3.74 0 0 1 -1.06-2.89v-61.61h-29.76v65.71q0 9.81 5.43 15.77t17.87 6h3.15q8.23 0 12.36-4.39a14.72 14.72 0 0 0 3.59-6.9v11.23h29.26v-87.42h-29.78z"/><path d="m591.62 158.58h-3.16q-8.24 0-12.35 4.38a14.72 14.72 0 0 0 -3.59 6.9v-11.28h-29.26v87.42h29.74v-60.26a5.52 5.52 0 0 1 1.23-4 4.75 4.75 0 0 1 3.51-1.23h3a4.83 4.83 0 0 1 3.33 1 3.72 3.72 0 0 1 1.06 2.89v61.6h29.78v-65.7q0-9.81-5.43-15.76t-17.86-5.96z"/><path d="m661.36 141.4h-29.79v17.18h-9.64v21.9h9.64v43.81q0 9.81 5.87 15.77t19.89 6h14.89v-21.95h-6.48a4.83 4.83 0 0 1 -3.33-1 3.73 3.73 0 0 1 -1-2.89v-39.74h11v-21.9h-11z"/><path d="m726.54 158.58h-21.37q-14 0-19.89 6t-5.87 15.76v44q0 9.81 5.87 15.77t19.89 6h21.37q14 0 19.89-6t5.87-15.77v-7.94h-28.21v4.91a3.83 3.83 0 0 1 -4.38 4.2h-7.71a4.83 4.83 0 0 1 -3.33-1 3.72 3.72 0 0 1 -1-2.89v-11.53h44.63v-29.79q0-9.81-5.87-15.76t-19.89-5.96zm-18.92 35.42v-11a3.76 3.76 0 0 1 1-2.9 4.83 4.83 0 0 1 3.33-1h7.71a4.83 4.83 0 0 1 3.33 1 3.76 3.76 0 0 1 1.05 2.9v11z"/><path d="m807.18 157.7a21.13 21.13 0 0 0 -10.51 2.46 16.3 16.3 0 0 0 -6.67 6.84 19.46 19.46 0 0 0 -1.75 5v-13.42h-29.25v87.42h29.78v-50.45q0-11.91 11-11.91h10v-25.94z"/></g><path d="m246 40.36v142.26a33.39 33.39 0 0 1 -9.78 23.61l-30 30a33.36 33.36 0 0 1 -23.6 9.78h-142.26a40.39 40.39 0 0 1 -40.36-40.36v-142.26a33.42 33.42 0 0 1 9.78-23.61l30-30a33.42 33.42 0 0 1 23.61-9.78h142.26a40.37 40.37 0 0 1 40.35 40.36z" fill="#feca1a"/><path d="m171.22 133.22a15.45 15.45 0 0 1 -3.16 2.54h-.08a20.22 20.22 0 0 1 -3.79 1.72 19.78 19.78 0 0 1 -5.23 1l-9.82.65-1.54.1a8.39 8.39 0 0 0 .79 16.65h.72l11 .11 7.52.09h.08c3.57.07 7.55-2.64 9.83-7 2.87-5.54 2.13-10.82-2.11-13.39z" fill="#2a3251"/><path d="m180.34 114.84-.61 1.22a8.45 8.45 0 0 0 -6.57 13.36 8.22 8.22 0 0 0 3 2.57 8.42 8.42 0 0 0 11.35-3.6c2.12-4.09.47-8.79-3.49-11.28z" fill="#2a3251"/><path d="m205 75.85a7.59 7.59 0 0 0 -4.47-.8l20.08-40.48-64.26-22.57-30 56.31c0-.3 0-.6 0-.89-.49-7.34-3-12.66-7-13.57a5.58 5.58 0 0 0 -1.28-.14 5.06 5.06 0 0 0 -4.86 4.82 36.48 36.48 0 0 1 -4.21 13.76c-3.63 7-8.64 12.18-13.08 14a12 12 0 0 1 -1.18.42c-9.74 3.62-21.51 13.19-31.62 26.52q-2.2 2.91-4.14 5.83a97.73 97.73 0 0 1 -19.8 20.32c-3.59 2.81-10.11 8.89-39.18 20.46v45.81a40.19 40.19 0 0 0 10.46 27.1c22.62-21.66 45.54-35.07 60.54-35.82h1.18c1.5 0 3-.14 4.57-.26l51.52 34 21.89-51.25 2.91 1.5.11.05c3.87 1.91 9.22-.82 12-6.14s1.88-11.36-2-13.38c0 0-3.08-1.32-4.64-2l-.28-.12-1 2h-.14l-12.62-2.42a8 8 0 0 0 -5.24 14.9l9.33 4.83-22.76 46.1-46.78-28.27-16.38-9.85 10.33-19.32 3.8-7.12a46.79 46.79 0 0 0 6.88-6 73.49 73.49 0 0 0 9-11.51q2.13-3.32 4-7a81.73 81.73 0 0 0 7.12-18.92c.27-1.12.49-2.22.68-3.31a19.85 19.85 0 0 1 1.42-3.51 19.6 19.6 0 0 1 4-5.32l.65-.59c.86-.78 1.71-1.6 2.54-2.46.27-.26.53-.54.8-.82 5.81-6.2 9.7-12.93 11-18.36l.15-.65a57.93 57.93 0 0 0 1.13-7.39l61.39 26.88q1.76-3.51 3.49-7l12.74-4.22h.1l.23-.08a7.65 7.65 0 0 0 .91-14zm-34.69-26.06c.58 2.91 1.2 6.06 1.91 9.42a51.37 51.37 0 0 1 .82 5.23c3.7.62 5.54.93 9.25 1.53a1.79 1.79 0 0 1 1.46 2.12c0 .29-.05.44-.08.74-4.91 1.28-7.35 1.92-12.24 3.14-4.39 3.33-6.59 5-11 8.23l-.37-.51a2.56 2.56 0 0 1 .23-3c2.66-3.72 4-5.58 6.63-9.32a42 42 0 0 1 -1.61-4.83c-.9-3.27-1.79-6.29-2.62-9.08q-11.47 8.16-23.08 16.16l-.41-1.62a3.1 3.1 0 0 1 .9-2.75q5.37-5.69 10.7-11.39c-.51-2.05-.77-3.07-1.28-5.12a2.57 2.57 0 0 1 1.48-2.74l1.39-.66a1.59 1.59 0 0 1 2.38.94c.27 1 .4 1.58.67 2.65l4.49-4.93c-1.68-5.34-4.22-13.73 0-18.57 6 .34 7.56 10.06 8.38 14.47 2.29-.05 3.43-.09 5.72-.15-.26-1.07-.39-1.59-.66-2.66a2.66 2.66 0 0 1 1.45-2.8l1.4-.71a1.55 1.55 0 0 1 2.38.88c.51 2 .76 3.06 1.27 5.11 5.43-.17 8.14-.28 13.57-.51a1.79 1.79 0 0 1 1.94 1.36c.16.69.24 1 .41 1.71q-12.71 3.95-25.48 7.66z" fill="#2a3251"/><path d="m106.45 202q8.85-17.4 17.7-34.77l-4.05-2.2q-8.85 17.3-17.69 34.58z" fill="#2a3251"/><path d="m120.93 147.55-24.93 48.33 4 2.38 25-48.59c-1.64-.84-2.45-1.27-4.07-2.12z" fill="#2a3251"/><path d="m87.94 191.11 5.74 3.39q7-13.55 14-27.09l-5.75-3.17z" fill="#2a3251"/></svg>