<svg viewBox="0 0 246.02 246.02" xmlns="http://www.w3.org/2000/svg"><path d="m246 40.36v142.26a33.39 33.39 0 0 1 -9.78 23.61l-30 30a33.36 33.36 0 0 1 -23.6 9.78h-142.26a40.39 40.39 0 0 1 -40.36-40.36v-142.26a33.42 33.42 0 0 1 9.78-23.61l30-30a33.42 33.42 0 0 1 23.61-9.78h142.26a40.37 40.37 0 0 1 40.35 40.36z" fill="#feca1a"/><g fill="#2a3251"><path d="m171.22 133.22a15.45 15.45 0 0 1 -3.16 2.54h-.08a20.22 20.22 0 0 1 -3.79 1.72 19.78 19.78 0 0 1 -5.23 1l-9.82.65-1.54.1a8.39 8.39 0 0 0 .79 16.65h.72l11 .11 7.52.09h.08c3.57.07 7.55-2.64 9.83-7 2.87-5.54 2.13-10.82-2.11-13.39z"/><path d="m180.34 114.84-.61 1.22a8.45 8.45 0 0 0 -6.57 13.36 8.22 8.22 0 0 0 3 2.57 8.42 8.42 0 0 0 11.35-3.6c2.12-4.09.47-8.79-3.49-11.28z"/><path d="m205 75.85a7.59 7.59 0 0 0 -4.47-.8l20.08-40.48-64.26-22.57-30 56.31c0-.3 0-.6 0-.89-.49-7.34-3-12.66-7-13.57a5.58 5.58 0 0 0 -1.28-.14 5.06 5.06 0 0 0 -4.86 4.82 36.48 36.48 0 0 1 -4.21 13.76c-3.63 7-8.64 12.18-13.08 14a12 12 0 0 1 -1.18.42c-9.74 3.62-21.51 13.19-31.62 26.52q-2.2 2.91-4.14 5.83a97.73 97.73 0 0 1 -19.8 20.32c-3.59 2.81-10.11 8.89-39.18 20.46v45.81a40.19 40.19 0 0 0 10.46 27.1c22.62-21.66 45.54-35.07 60.54-35.82h1.18c1.5 0 3-.14 4.57-.26l51.52 34 21.89-51.25 2.91 1.5.11.05c3.87 1.91 9.22-.82 12-6.14s1.88-11.36-2-13.38c0 0-3.08-1.32-4.64-2l-.28-.12-1 2h-.14l-12.62-2.42a8 8 0 0 0 -5.24 14.9l9.33 4.83-22.76 46.1-46.78-28.27-16.38-9.85 10.33-19.32 3.8-7.12a46.79 46.79 0 0 0 6.88-6 73.49 73.49 0 0 0 9-11.51q2.13-3.32 4-7a81.73 81.73 0 0 0 7.12-18.92c.27-1.12.49-2.22.68-3.31a19.85 19.85 0 0 1 1.42-3.51 19.6 19.6 0 0 1 4-5.32l.65-.59c.86-.78 1.71-1.6 2.54-2.46.27-.26.53-.54.8-.82 5.81-6.2 9.7-12.93 11-18.36l.15-.65a57.93 57.93 0 0 0 1.13-7.39l61.39 26.88q1.76-3.51 3.49-7l12.74-4.22h.1l.23-.08a7.65 7.65 0 0 0 .91-14zm-34.69-26.06c.58 2.91 1.2 6.06 1.91 9.42a51.37 51.37 0 0 1 .82 5.23c3.7.62 5.54.93 9.25 1.53a1.79 1.79 0 0 1 1.46 2.12c0 .29-.05.44-.08.74-4.91 1.28-7.35 1.92-12.24 3.14-4.39 3.33-6.59 5-11 8.23l-.37-.51a2.56 2.56 0 0 1 .23-3c2.66-3.72 4-5.58 6.63-9.32a42 42 0 0 1 -1.61-4.83c-.9-3.27-1.79-6.29-2.62-9.08q-11.47 8.16-23.08 16.16l-.41-1.62a3.1 3.1 0 0 1 .9-2.75q5.37-5.69 10.7-11.39c-.51-2.05-.77-3.07-1.28-5.12a2.57 2.57 0 0 1 1.48-2.74l1.39-.66a1.59 1.59 0 0 1 2.38.94c.27 1 .4 1.58.67 2.65l4.49-4.93c-1.68-5.34-4.22-13.73 0-18.57 6 .34 7.56 10.06 8.38 14.47 2.29-.05 3.43-.09 5.72-.15-.26-1.07-.39-1.59-.66-2.66a2.66 2.66 0 0 1 1.45-2.8l1.4-.71a1.55 1.55 0 0 1 2.38.88c.51 2 .76 3.06 1.27 5.11 5.43-.17 8.14-.28 13.57-.51a1.79 1.79 0 0 1 1.94 1.36c.16.69.24 1 .41 1.71q-12.71 3.95-25.48 7.66z"/><path d="m106.45 202q8.85-17.4 17.7-34.77l-4.05-2.2q-8.85 17.3-17.69 34.58z"/><path d="m120.93 147.55-24.93 48.33 4 2.38 25-48.59c-1.64-.84-2.45-1.27-4.07-2.12z"/><path d="m87.94 191.11 5.74 3.39q7-13.55 14-27.09l-5.75-3.17z"/></g></svg>