<svg viewBox="0 0 2160 2160" xmlns="http://www.w3.org/2000/svg"><path d="m0 0h2160v2160h-2160z" fill="none"/><path d="m169.66 1403.8h48.12v121.35h55.39v-121.35h48.12v-42.95h-151.63z" fill="#3a3a3a"/><path d="m437.47 1449.57q0 18.78-6.69 26.64t-18.42 7.86q-11.5 0-18.31-7.86t-6.81-26.64v-88.72h-55.39v90.36q0 36.86 21.12 57.27t58.92 20.42q37.78 0 58.91-20.42t21.13-57.27v-90.36h-54.46z" fill="#3a3a3a"/><path d="m662.1 1455.55q9.15-13.72 9.15-32.74t-9.15-33q-9.17-13.95-25.94-21.47t-39.79-7.51h-79.1v164.3h55.4v-41.31h15.09l27.86 41.31h59.15l-34.48-50.54a56.59 56.59 0 0 0 21.81-19.04zm-52.23-46.82q5.5 5.16 5.52 14.08t-5.52 14.08q-5.52 5.17-17 5.17h-20.2v-38.49h20.18q11.51 0 17.02 5.16z" fill="#3a3a3a"/><path d="m800.11 1435.56-62.44-74.71h-45.54v164.3h53.99v-74.71l62.44 74.71h45.53v-164.3h-53.98z" fill="#3a3a3a"/><g fill="#838483"><path d="m934.83 1360.85-71.83 164.3h56.33l11-28.64h62.49l11 28.64h57.27l-71.83-164.3zm10.85 95.76 15.91-41.38 15.9 41.38z"/><path d="m1214.84 1455.55q9.17-13.72 9.16-32.74t-9.16-33q-9.15-13.95-25.93-21.47t-39.78-7.51h-79.13v164.3h55.39v-41.31h15.09l27.86 41.31h59.15l-34.49-50.52a56.48 56.48 0 0 0 21.84-19.06zm-52.22-46.82q5.52 5.16 5.52 14.08t-5.52 14.08q-5.52 5.17-17 5.17h-20.18v-38.49h20.18q11.49 0 17 5.16z"/><path d="m1397.45 1381.39a87.22 87.22 0 0 0 -29.34-18 111.28 111.28 0 0 0 -74 0 87.07 87.07 0 0 0 -29.46 18 82.76 82.76 0 0 0 -19.36 27.22 88.62 88.62 0 0 0 0 68.66 82.42 82.42 0 0 0 19.36 27.34 87.23 87.23 0 0 0 29.46 18 105.87 105.87 0 0 0 37.2 6.33 104.23 104.23 0 0 0 36.85-6.33 87.38 87.38 0 0 0 29.34-18 82.59 82.59 0 0 0 19.37-27.34 88.62 88.62 0 0 0 0-68.66 82.93 82.93 0 0 0 -19.42-27.22zm-32.39 78.86a36.81 36.81 0 0 1 -7.86 12.91 34.81 34.81 0 0 1 -11.74 8.1 38.48 38.48 0 0 1 -28.87 0 34.67 34.67 0 0 1 -11.73-8.1 36.83 36.83 0 0 1 -7.87-12.91 54.35 54.35 0 0 1 0-34.5 36.83 36.83 0 0 1 7.87-12.91 34.67 34.67 0 0 1 11.73-8.1 38.35 38.35 0 0 1 28.87 0 34.81 34.81 0 0 1 11.74 8.1 36.81 36.81 0 0 1 7.86 12.91 54.17 54.17 0 0 1 0 34.5z"/><path d="m1548.14 1449.57q0 18.78-6.69 26.64t-18.43 7.86q-11.49 0-18.31-7.86t-6.8-26.64v-88.72h-55.39v90.36q0 36.86 21.12 57.27t58.91 20.42q37.8 0 58.92-20.42t21.12-57.27v-90.36h-54.45z"/><path d="m1735.91 1435.56-62.44-74.71h-45.53v164.3h53.98v-74.71l62.44 74.71h45.53v-164.3h-53.98z"/><path d="m1978.6 1399.11q-11.73-18.31-32.62-28.29t-48.36-10h-81v164.3h81q27.47 0 48.36-10t32.62-28.4q11.73-18.42 11.74-44 0-25.31-11.74-43.61zm-49 65.13a32.1 32.1 0 0 1 -13.73 13.26 44.81 44.81 0 0 1 -20.54 4.46h-23.33v-77.96h23.24a44.94 44.94 0 0 1 20.54 4.46 32.36 32.36 0 0 1 13.73 13.15q4.92 8.68 4.92 21.12.04 12.71-4.88 21.51z"/><path d="m540.75 1643a33.15 33.15 0 0 1 12.09-8.22 41.92 41.92 0 0 1 15.72-2.82 39.18 39.18 0 0 1 19.83 5 56.8 56.8 0 0 1 16.08 14.2l35-31.22a79.68 79.68 0 0 0 -30.87-24.41q-18.66-8.44-42.83-8.45a104.34 104.34 0 0 0 -36.5 6.22 85.92 85.92 0 0 0 -29.11 17.73 80.66 80.66 0 0 0 -19.16 27.28 92.14 92.14 0 0 0 0 69.48 80.66 80.66 0 0 0 19.14 27.21 85.92 85.92 0 0 0 29.11 17.73 104.34 104.34 0 0 0 36.5 6.22q24.16 0 42.83-8.57a81.46 81.46 0 0 0 30.87-24.29l-35-31.22a56.65 56.65 0 0 1 -16.08 14.2 39.18 39.18 0 0 1 -19.83 5.05 41.92 41.92 0 0 1 -15.72-2.82 33.15 33.15 0 0 1 -12.09-8.22 38.07 38.07 0 0 1 -7.87-13 52.95 52.95 0 0 1 0-34 38.17 38.17 0 0 1 7.89-13.08z"/><path d="m804.45 1611.44a87.58 87.58 0 0 0 -29.34-18 111.28 111.28 0 0 0 -74.05 0 87.13 87.13 0 0 0 -29.46 18 82.79 82.79 0 0 0 -19.37 27.22 88.62 88.62 0 0 0 0 68.66 82.45 82.45 0 0 0 19.37 27.34 87.13 87.13 0 0 0 29.46 18 105.87 105.87 0 0 0 37.2 6.34 104.27 104.27 0 0 0 36.85-6.34 87.58 87.58 0 0 0 29.34-18 82.56 82.56 0 0 0 19.36-27.34 88.5 88.5 0 0 0 0-68.66 82.91 82.91 0 0 0 -19.36-27.22zm-32.39 78.86a36.83 36.83 0 0 1 -7.87 12.91 34.67 34.67 0 0 1 -11.73 8.1 38.35 38.35 0 0 1 -28.87 0 34.81 34.81 0 0 1 -11.74-8.1 37 37 0 0 1 -7.85-12.91 54.17 54.17 0 0 1 0-34.5 37.05 37.05 0 0 1 7.86-12.91 34.81 34.81 0 0 1 11.74-8.1 38.35 38.35 0 0 1 28.87 0 34.67 34.67 0 0 1 11.73 8.1 36.92 36.92 0 0 1 7.87 12.91 54.35 54.35 0 0 1 0 34.5z"/><path d="m958.89 1665.61-62.43-74.71h-45.54v164.3h53.98v-74.71l62.44 74.71h45.53v-164.3h-53.98z"/><path d="m1027.19 1633.85h48.12v121.35h55.39v-121.35h48.11v-42.95h-151.62z"/><path d="m1338 1685.61q9.15-13.74 9.15-32.75t-9.15-33q-9.15-14-25.94-21.48t-39.78-7.51h-79.1v164.3h55.39v-41.31h15.09l27.87 41.31h59.15l-34.49-50.53a56.68 56.68 0 0 0 21.81-19.03zm-52.22-46.83q5.51 5.16 5.51 14.08t-5.51 14.09q-5.52 5.16-17 5.16h-20.19v-38.49h20.19q11.42 0 16.95 5.16z"/><path d="m1520.56 1611.44a87.58 87.58 0 0 0 -29.34-18 111.28 111.28 0 0 0 -74 0 87.13 87.13 0 0 0 -29.46 18 82.79 82.79 0 0 0 -19.37 27.22 88.62 88.62 0 0 0 0 68.66 82.45 82.45 0 0 0 19.37 27.34 87.13 87.13 0 0 0 29.46 18 105.87 105.87 0 0 0 37.2 6.34 104.27 104.27 0 0 0 36.85-6.34 87.58 87.58 0 0 0 29.34-18 82.56 82.56 0 0 0 19.36-27.34 88.62 88.62 0 0 0 0-68.66 82.91 82.91 0 0 0 -19.41-27.22zm-32.39 78.86a36.83 36.83 0 0 1 -7.87 12.91 34.67 34.67 0 0 1 -11.73 8.1 38.35 38.35 0 0 1 -28.87 0 34.71 34.71 0 0 1 -11.74-8.1 37 37 0 0 1 -7.86-12.91 54.17 54.17 0 0 1 0-34.5 37.05 37.05 0 0 1 7.86-12.91 34.71 34.71 0 0 1 11.74-8.1 38.35 38.35 0 0 1 28.87 0 34.67 34.67 0 0 1 11.73 8.1 36.92 36.92 0 0 1 7.87 12.91 54.35 54.35 0 0 1 0 34.5z"/><path d="m1622.42 1712.25v-121.35h-55.39v164.3h129.56v-42.95z"/></g><path d="m808.64 547.58 115 .47v-126.8q-18.15-1.8-36.78-1.82h-331a147.16 147.16 0 0 0 -145.38 124.57c-.08.53-.16 1.08-.25 1.61l24.67.13 28.58.16a96.35 96.35 0 0 1 69.83 30.59l-29.88 27.81a54.68 54.68 0 0 0 -40.15-17.57l-28.38-.14-26.16-.15v715.74h39.34l.55-180.14 40.87.2-.5 179.94h26.36l.55-179.79 40.87.2-.56 179.59h26.36l.55-179.47 40.87.21-.53 179.26h42.79v-533.32a55.18 55.18 0 0 1 55.17-55.18h165.47a73.14 73.14 0 0 1 36.78 9.85v-134.62l-13.9-.06v.09l-101.39-.5.21-40.86zm-251.77 548.65-40.87-.23.51-101.4 40.87.21zm.63-127.75-40.87-.21.51-101.37 40.87.2zm.63-127.74-40.86-.2.51-101.37 40.87.2zm.64-127.74-40.87-.2.37-70.54a55.52 55.52 0 0 0 -4.39-21.93l37.59-16a95.66 95.66 0 0 1 7.67 38.15zm223.23-124.7-114.27-.57.21-40.87 114.27.57z" fill="#3a3a3a"/><path d="m224.84 419.43a55.19 55.19 0 0 0 -55.18 55.18v183.9a55.18 55.18 0 0 0 55.18 55.17h147.16v-127.42l-39.27-.37.2-40.87 40.28.37a184 184 0 0 1 72.45-126zm81.49 166.32-101.4-.49.21-40.87 101.39.49z" fill="#3a3a3a"/><path d="m1254.63 780c0-.71 0-1.43 0-2.14 0-2-.1-3.91-.21-5.85 0-.26 0-.51 0-.75-.1-2.45-.22-4.89-.38-7.32v-.1c-.13-1.92-.25-3.84-.43-5.76-.09-1.17-.17-2.33-.29-3.52-.12-1.53-.27-3.06-.43-4.59-.12-1.25-.26-2.5-.39-3.74-.08-.82-.18-1.64-.28-2.44-.13-1-.23-2-.37-3-.06-.63-.14-1.27-.25-1.9-.18-1.45-.36-2.9-.59-4.33-.08-.59-.16-1.19-.24-1.76-.33-2.21-.68-4.41-1-6.62 0-.06 0-.14 0-.2s-.06-.37-.1-.56c-.22-1.41-.47-2.82-.73-4.21-.19-1-.37-2-.58-3-.28-1.49-.57-3-.88-4.48-.22-1.14-.47-2.3-.71-3.45-.06-.37-.14-.71-.23-1.06-.24-1.15-.49-2.27-.75-3.39-.31-1.47-.66-2.95-1-4.4-.23-.85-.43-1.69-.64-2.53-.39-1.63-.79-3.25-1.22-4.86-.53-2.07-1.09-4.11-1.66-6.17s-1.18-4.13-1.8-6.2a368.69 368.69 0 0 0 -279.01-254.88v130.74a242.24 242.24 0 0 1 79.1 41.3l-25.26 32.1a200.88 200.88 0 0 0 -53.84-30.27v186.59a73.57 73.57 0 0 1 -73.56 73.56h-128.74a55.18 55.18 0 0 0 -55.16 55.19v239.08l110.35 147.12h122.53l-53.23-71.78 32.82-24.42 71.35 96.14h120.77l-121.08-160.73q14.87-4.17 29.2-9.52l5.62-2.15.15-.06q11-4.35 21.72-9.36c.67-.3 1.33-.63 2-.94q4.35-2.08 8.64-4.27c.37-.18.72-.37 1.07-.55 1.73-.88 3.45-1.8 5.17-2.72s3.55-1.92 5.33-2.9q4.79-2.67 9.48-5.46c2.29-1.34 4.54-2.73 6.78-4.14 1.23-.76 2.44-1.54 3.66-2.31q9-5.76 17.56-12c1.28-.94 2.57-1.88 3.86-2.84 1.51-1.12 3-2.25 4.49-3.41s2.76-2.13 4.11-3.21c1.18-.94 2.35-1.86 3.49-2.82 1-.78 2-1.57 2.91-2.39 1.22-1 2.45-2 3.65-3.07 2.35-2 4.68-4 7-6.1 1.27-1.15 2.52-2.29 3.76-3.44s2.31-2.14 3.46-3.23c2.3-2.18 4.59-4.39 6.84-6.64 1.12-1.12 2.25-2.27 3.35-3.39.43-.41.84-.82 1.25-1.25.65-.67 1.31-1.34 1.94-2 .12-.14.24-.28.39-.43l3-3.21q5.4-5.76 10.48-11.77s.07-.08.09-.12c1.35-1.57 2.69-3.17 4-4.76s2.66-3.25 4-4.9 2.47-3.11 3.67-4.68a4.12 4.12 0 0 1 .35-.45c1-1.33 2-2.68 3-4 .38-.53.79-1.08 1.2-1.61 1-1.43 2.09-2.86 3.11-4.31q1.83-2.55 3.63-5.15c1.19-1.74 2.38-3.48 3.54-5.24 1-1.43 1.9-2.86 2.82-4.31.51-.77 1-1.53 1.47-2.31.74-1.14 1.47-2.3 2.17-3.45.24-.37.47-.73.67-1.1 1-1.62 2-3.23 2.94-4.87s2.11-3.57 3.15-5.39l.12-.22q1.41-2.46 2.76-5c.31-.51.57-1 .84-1.53.65-1.19 1.31-2.39 1.94-3.62.92-1.72 1.8-3.43 2.68-5.15.51-1 1-2 1.49-3 .67-1.35 1.35-2.7 2-4 .8-1.63 1.57-3.25 2.31-4.88.84-1.78 1.66-3.6 2.45-5.4q1-2.35 2.07-4.72 2.7-6.29 5.15-12.69c.87-2.31 1.73-4.61 2.57-6.94.74-2.07 1.47-4.15 2.17-6.22.43-1.24.83-2.49 1.24-3.74s.78-2.32 1.13-3.49c1.9-6 3.63-12 5.23-18.06a.13.13 0 0 0 0-.09c1.12-4.31 2.16-8.62 3.12-13 .5-2.19.94-4.37 1.39-6.56 0 0 0-.08 0-.12.31-1.45.58-2.9.86-4.36.21-1 .39-2 .58-3 .26-1.39.51-2.8.73-4.21 0-.18.06-.37.1-.55s0-.14 0-.2q.55-3.32 1-6.63c.08-.57.16-1.16.24-1.75.23-1.43.41-2.88.59-4.33.11-.64.19-1.27.25-1.91.14-1 .24-2 .37-3 .1-.82.2-1.61.28-2.43.13-1.25.27-2.49.39-3.74.16-1.53.31-3.06.43-4.6.1-1.16.2-2.31.29-3.47.16-1.92.3-3.86.43-5.8v-.13c.16-2.43.28-4.86.38-7.31 0-.25 0-.47 0-.72.11-1.94.17-3.9.21-5.86 0-.7 0-1.41 0-2.13.06-2.41.08-4.86.08-7.29s.14-4.93.08-7.33zm-421.58 261.06a54.3 54.3 0 0 1 54.48-53.93c3.05 0 6.15 0 9.2-.14l1.63 40.83c-3.66.14-7.37.2-11 .18a13.37 13.37 0 0 0 -13.41 13.26l-.26 56.61-40.87-.21zm33.88 168.17-34.47-46.45.19-38.76 40.86.21-.12 25.15 26.36 35.49zm194.15-591.32a242.23 242.23 0 0 1 57.92 93.32l-38.75 13a200.55 200.55 0 0 0 -48.06-77.45zm-134.15 407.09-6.4-40.38a203.69 203.69 0 0 0 84.64-34.25l23.48 33.47a245.53 245.53 0 0 1 -101.72 41.16zm124.24-59-27.24-30.46a201.31 201.31 0 0 0 52.47-74.54l37.93 15.25a242.32 242.32 0 0 1 -63.16 89.75zm80.18-174.34a239.46 239.46 0 0 1 -7.93 57.22l-39.5-10.53a197.67 197.67 0 0 0 6.58-47.35v-2.39a197.84 197.84 0 0 0 -4.06-41.24l40-8.26a242.34 242.34 0 0 1 4.9 49.7z" fill="#00a65c"/><path d="m1633.48 1033.68q-37.68 24.88-86.17 24.89-71.55 0-113-53.62t-41.51-144.28q0-90.64 41.51-144.27t113-53.62q48.48 0 86.17 24.89t58.09 69.58h298.77q-19.15-107.25-77.24-187.67t-150.66-124.48q-92.61-44-210-44.06-136.64 0-237.48 58.1a391.58 391.58 0 0 0 -104 86.15 401.2 401.2 0 0 1 76.3 183.31 407.93 407.93 0 0 1 4.23 58.65 402.21 402.21 0 0 1 -48.92 192.75 407 407 0 0 1 -87.52 110c1.54 3.16 3.13 6.33 4.74 9.46q54.26 104.7 155.14 162.78t237.48 58.09q117.46 0 210-44.06t150.66-124.48q58.08-80.43 77.24-187.67h-298.74q-20.44 44.68-58.09 69.56z" fill="#00a65c"/></svg>