<svg viewBox="0 0 1820.67 919.27" xmlns="http://www.w3.org/2000/svg"><path d="m639 146.53 115 .47v-126.79q-18.15-1.82-36.79-1.82h-331a147.16 147.16 0 0 0 -145.39 124.53c-.09.53-.17 1.08-.25 1.61l24.66.12 28.59.17a96.34 96.34 0 0 1 69.82 30.59l-29.87 27.85a54.74 54.74 0 0 0 -40.15-17.58l-28.39-.14-26.15-.14v715.74h39.33l.59-180.14 40.86.21-.55 179.94h26.36l.55-179.8 40.87.21-.55 179.59h26.36l.55-179.47 40.87.2-.53 179.27h42.79v-533.34a55.18 55.18 0 0 1 55.17-55.17h165.48a73.15 73.15 0 0 1 36.77 9.85v-134.62l-13.9-.06v.08l-101.39-.49.2-40.87zm-251.79 548.66-40.87-.19.51-101.39 40.87.2zm.63-127.76-40.87-.2.51-101.38 40.87.21zm.63-127.73-40.87-.2.51-101.38 40.87.21zm.63-127.7-40.86-.21.36-70.54a55.48 55.48 0 0 0 -4.39-21.92l37.6-16a95.61 95.61 0 0 1 7.66 38.15zm223.27-124.74-114.27-.57.2-40.87 114.27.57z" fill="#3a3a3a"/><path d="m55.17 18.39a55.18 55.18 0 0 0 -55.17 55.17v183.91a55.17 55.17 0 0 0 55.17 55.17h147.13v-127.43l-39.3-.36.21-40.87 40.27.37a184 184 0 0 1 72.52-125.96zm81.49 166.31-101.39-.49.2-40.87 101.4.5z" fill="#3a3a3a"/><g fill="#00a65c"><path d="m1085 378.93c0-.72 0-1.43 0-2.15 0-2-.1-3.9-.2-5.84 0-.27 0-.51 0-.76-.1-2.45-.22-4.88-.39-7.31v-.1c-.12-1.93-.24-3.85-.43-5.77-.08-1.16-.16-2.33-.28-3.51-.13-1.53-.27-3.07-.43-4.6-.13-1.25-.27-2.49-.39-3.74-.08-.82-.19-1.63-.29-2.43-.12-1-.22-2-.37-3-.06-.64-.14-1.27-.24-1.9-.18-1.46-.37-2.91-.59-4.34-.08-.59-.17-1.18-.25-1.75q-.48-3.32-1-6.62c0-.07 0-.15 0-.21s-.06-.37-.1-.55c-.23-1.41-.47-2.82-.74-4.21-.18-1-.37-2-.57-3-.29-1.5-.57-3-.88-4.48-.22-1.14-.47-2.31-.71-3.45-.07-.37-.15-.72-.23-1.07-.24-1.14-.49-2.26-.76-3.39-.3-1.47-.65-2.94-1-4.39-.22-.86-.43-1.7-.63-2.53-.39-1.64-.8-3.25-1.23-4.87-.53-2.06-1.08-4.1-1.65-6.17s-1.19-4.13-1.8-6.19a368.74 368.74 0 0 0 -279.04-254.85v130.73a242.72 242.72 0 0 1 79.1 41.3l-25.26 32.1a200.84 200.84 0 0 0 -53.84-30.26v186.58a73.57 73.57 0 0 1 -73.57 73.57h-128.73a55.17 55.17 0 0 0 -55.17 55.17v239.06l110.34 147.14h122.55l-53.22-71.78 32.8-24.36 71.36 96.14h120.76l-121.07-160.77q14.86-4.17 29.2-9.53l5.62-2.14.14-.06q11-4.36 21.72-9.36c.68-.31 1.33-.64 2-.94q4.35-2.09 8.64-4.27l1.06-.55c1.74-.88 3.46-1.8 5.17-2.72s3.56-1.92 5.34-2.9c3.18-1.78 6.35-3.6 9.48-5.46 2.29-1.35 4.53-2.74 6.78-4.15 1.23-.75 2.43-1.53 3.66-2.31q9-5.76 17.55-12c1.29-.94 2.58-1.88 3.86-2.84 1.52-1.13 3-2.25 4.5-3.42s2.76-2.12 4.11-3.2c1.18-.94 2.35-1.86 3.49-2.82 1-.78 1.94-1.58 2.9-2.39 1.23-1 2.45-2 3.66-3.07 2.35-2 4.68-4 7-6.11 1.27-1.14 2.51-2.29 3.76-3.43s2.31-2.15 3.45-3.23c2.31-2.19 4.6-4.39 6.85-6.64l3.35-3.39c.43-.41.84-.82 1.24-1.25.66-.67 1.31-1.35 1.95-2a5.08 5.08 0 0 1 .38-.43l3-3.21q5.38-5.76 10.48-11.77l.08-.12c1.35-1.58 2.7-3.17 4-4.76s2.65-3.25 4-4.91 2.47-3.1 3.68-4.68a4.94 4.94 0 0 1 .35-.45c1-1.33 2-2.67 3-4 .39-.53.8-1.09 1.21-1.62 1-1.43 2.08-2.86 3.1-4.31q1.85-2.54 3.64-5.15t3.54-5.23c1-1.43 1.9-2.86 2.82-4.31.51-.78 1-1.53 1.47-2.31.73-1.14 1.47-2.31 2.16-3.45.25-.37.47-.74.68-1.11 1-1.61 2-3.22 2.94-4.86s2.1-3.58 3.15-5.39c0-.09.08-.15.12-.23.94-1.63 1.86-3.29 2.76-4.94.3-.51.57-1 .84-1.54.65-1.18 1.3-2.39 1.94-3.61.92-1.72 1.8-3.44 2.67-5.15.51-1 1-2 1.5-3 .67-1.35 1.34-2.69 2-4 .8-1.64 1.57-3.25 2.31-4.89s1.65-3.59 2.45-5.39c.69-1.57 1.39-3.15 2.06-4.72q2.7-6.28 5.15-12.69c.88-2.31 1.74-4.62 2.58-7 .73-2.06 1.47-4.15 2.16-6.21.43-1.25.84-2.49 1.25-3.74s.78-2.33 1.12-3.49q2.85-9 5.23-18.07a.09.09 0 0 0 0-.08c1.12-4.31 2.16-8.62 3.12-13 .49-2.19.94-4.38 1.39-6.56 0 0 0-.09 0-.13.31-1.45.57-2.9.86-4.35.2-1 .39-2 .57-3 .27-1.39.51-2.8.74-4.21 0-.19.06-.37.1-.55s0-.15 0-.21c.37-2.21.72-4.41 1-6.62.08-.57.17-1.16.25-1.76.22-1.43.41-2.88.59-4.33.1-.63.18-1.27.24-1.9.15-1 .25-2 .37-3 .1-.82.21-1.62.29-2.43.12-1.25.26-2.5.39-3.74.16-1.54.3-3.07.43-4.6.1-1.17.2-2.31.28-3.48.17-1.92.31-3.86.43-5.8v-.12c.17-2.43.29-4.86.39-7.32 0-.24 0-.47 0-.71.1-1.94.16-3.91.2-5.87 0-.69 0-1.41 0-2.12.06-2.41.08-4.86.08-7.3s.13-4.9.13-7.33zm-421.61 261.07a54.29 54.29 0 0 1 54.48-53.92c3 0 6.15 0 9.19-.14l1.64 40.82c-3.66.15-7.38.21-11 .19a13.36 13.36 0 0 0 -13.4 13.26l-.27 56.6-40.86-.2zm33.88 168.18-34.47-46.44.2-38.74 40.87.2-.12 25.16 26.36 35.49zm194.14-591.31a241.91 241.91 0 0 1 57.89 93.32l-38.74 13a200.72 200.72 0 0 0 -48.06-77.45zm-134.15 407.13-6.39-40.37a204 204 0 0 0 84.64-34.25l23.49 33.42a245.42 245.42 0 0 1 -101.74 41.2zm124.24-59-27.23-30.47a201.31 201.31 0 0 0 52.47-74.54l37.93 15.24a242.3 242.3 0 0 1 -63.17 89.71zm80.19-174.4a239.82 239.82 0 0 1 -7.93 57.21l-39.5-10.52a198.32 198.32 0 0 0 6.58-47.39v-2.39a198.49 198.49 0 0 0 -4.07-41.23l40-8.26a242.28 242.28 0 0 1 4.91 49.7z"/><path d="m1463.81 632.64q-37.66 24.89-86.17 24.89-71.54 0-113-53.62t-41.5-144.29q0-90.63 41.5-144.26t113-53.62q48.49 0 86.17 24.89t58.1 69.58h298.76q-19.15-107.21-77.24-187.67t-150.66-124.48q-92.59-44.06-210.02-44.06-136.63 0-237.48 58.09a391.8 391.8 0 0 0 -104 86.15 404 404 0 0 1 -55.91 544.69c1.53 3.17 3.13 6.34 4.74 9.46q54.26 104.72 155.14 162.78t237.48 58.1q117.45 0 210-44.06t150.66-124.48q58.08-80.43 77.24-187.67h-298.71q-20.44 44.69-58.1 69.58z"/></g></svg>